<?xml version="1.0" encoding="UTF-8"?>
<svg width="30px" height="25px" viewBox="0 0 30 25" version="1.1" xmlns="http://www.w3.org/2000/svg" xmlns:xlink="http://www.w3.org/1999/xlink">
    <!-- Generator: sketchtool 51.3 (57544) - http://www.bohemiancoding.com/sketch -->
    <title>C3D72D75-48F5-40C6-812B-9D2E0C2586FC</title>
    <desc>Created with sketchtool.</desc>
    <defs></defs>
    <g id="Page-1" stroke="none" stroke-width="1" fill="none" fill-rule="evenodd" opacity="0.400000006">
        <g id="Artboard-(1)" transform="translate(-527.000000, -4381.000000)" fill="#000000" fill-rule="nonzero">
            <g id="Group-16" transform="translate(0.000000, 3620.000000)">
                <g id="Group-15" transform="translate(0.000000, 355.000000)">
                    <g id="Group-9" transform="translate(80.000000, 0.000000)">
                        <g id="Group-10" transform="translate(326.000000, 404.000000)">
                            <g id="twitter" transform="translate(121.000000, 2.000000)">
                                <path d="M29.4621642,2.90124269 C28.7969817,3.19663743 28.1064708,3.42967836 27.3979307,3.59839181 C28.1786606,2.85540936 28.7656679,1.92609649 29.0968358,0.888815789 C29.1913613,0.592690058 28.8701934,0.336622807 28.6031861,0.495175439 C27.6174927,1.08070175 26.5557409,1.51995614 25.4473467,1.80087719 C25.3830401,1.81717836 25.3166898,1.8254386 25.2501204,1.8254386 C25.0482226,1.8254386 24.8519453,1.7503655 24.6975657,1.61410819 C23.5182956,0.573245614 22.0015803,0 20.4269088,0 C19.7455219,0 19.0575657,0.106359649 18.3820912,0.316154971 C16.2892445,0.96622807 14.674427,2.69510234 14.1677847,4.82814327 C13.9777117,5.62821637 13.9262518,6.42902047 14.014719,7.20826023 C14.024865,7.29780702 13.9826022,7.36030702 13.9565438,7.38961988 C13.9107774,7.44100877 13.8458869,7.47046784 13.7785146,7.47046784 C13.7709963,7.47046784 13.7632591,7.47010234 13.7555949,7.46937135 C9.174427,7.04312865 5.04333211,4.83282164 2.12325912,1.24568713 C1.97435401,1.0627193 1.68880657,1.08516082 1.57012043,1.28903509 C0.998295617,2.27149123 0.696105836,3.39517544 0.696105836,4.53859649 C0.696105836,6.29093567 1.39909854,7.94232456 2.62019343,9.14619883 C2.10668978,9.02426901 1.60968248,8.83223684 1.14800365,8.5754386 C0.924645982,8.45116959 0.649828463,8.61089181 0.646689777,8.86673977 C0.614718974,11.4699561 2.13661678,13.7863304 4.4164708,14.829386 C4.37055839,14.8304825 4.32464598,14.8309942 4.27866058,14.8309942 C3.91727372,14.8309942 3.55136131,14.7960526 3.19121532,14.7271199 C2.93968248,14.6790205 2.72836861,14.9179825 2.8064708,15.1622076 C3.5464708,17.4758772 5.53566788,19.1812865 7.91610584,19.5684942 C5.9404854,20.8966374 3.63982846,21.5972222 1.24530292,21.5972222 L0.498806566,21.5967836 C0.268806566,21.5967836 0.0742810181,21.7469298 0.0156678794,21.9700292 C-0.0420693468,22.1897661 0.0642810181,22.4215643 0.260412405,22.5358187 C2.95866058,24.1084064 6.03639781,24.9395468 9.16223722,24.9395468 C11.8983686,24.9395468 14.4577847,24.3957602 16.7694635,23.3233918 C18.8886606,22.3402778 20.7613613,20.9349415 22.3355219,19.1464181 C23.8019453,17.4803363 24.9486606,15.5570175 25.7436971,13.4299708 C26.5015803,11.4024123 26.9021642,9.23896199 26.9021642,7.17346491 L26.9021642,7.0750731 C26.9020912,6.74342105 27.0518723,6.43135965 27.3131861,6.21893275 C28.304792,5.4126462 29.1682956,4.46352339 29.8796095,3.39795322 C30.0674197,3.11659357 29.7712153,2.76396199 29.4621642,2.90124269 Z" id="Shape"></path>
                            </g>
                        </g>
                    </g>
                </g>
            </g>
        </g>
    </g>
</svg>