<?xml version="1.0" encoding="UTF-8"?>
<svg width="80px" height="73px" viewBox="0 0 80 73" version="1.1" xmlns="http://www.w3.org/2000/svg" xmlns:xlink="http://www.w3.org/1999/xlink">
    <!-- Generator: sketchtool 51.2 (57519) - http://www.bohemiancoding.com/sketch -->
    <title>FAE5ED7B-7888-4633-84FB-F101BEF851CB</title>
    <desc>Created with sketchtool.</desc>
    <defs></defs>
    <g id="Page-1" stroke="none" stroke-width="1" fill="none" fill-rule="evenodd">
        <g id="Artboard-(1)" transform="translate(-847.000000, -2431.000000)" fill-rule="nonzero">
            <g id="Group-25" transform="translate(0.000000, 2230.000000)">
                <g id="Group-4" transform="translate(771.000000, 100.000000)">
                    <g id="children" transform="translate(76.000000, 101.000000)">
                        <path d="M56.83125,1 L64.6040625,1 C66.530625,1 68.273125,2.13771277 69.038125,3.89530426 L69.5348437,5.03643404 L71.880625,5.03643404 C75.8596875,5.03643404 79.0854687,8.24284255 79.0854687,12.1983553 L79.0854687,38.5352021 C79.0854687,41.3447702 76.7942187,43.6225255 73.9676562,43.6225255 L48.1178125,43.6225255 C45.2914063,43.6225255 43,41.3449255 43,38.5352021 L43,14.7488511 C43,7.15560851 49.1925,1 56.83125,1 Z" id="Shape" fill="#475D6D"></path>
                        <path d="M71.3025,5.03643404 L68.956875,5.03643404 L68.4601562,3.89530426 C67.695,2.13771277 65.9526562,1 64.0260938,1 L60,1 C61.9265625,1 63.6690625,2.13771277 64.4340625,3.89530426 L64.9307812,5.03643404 L67.2765625,5.03643404 C71.255625,5.03643404 74.4814062,8.24284255 74.4814062,12.1983553 L74.4814062,38.5352021 C74.4814062,41.3447702 72.1901562,43.6223702 69.3635937,43.6223702 L73.3896875,43.6223702 C76.2160937,43.6223702 78.5073437,41.3447702 78.5073437,38.5352021 L78.5073437,12.1983553 C78.5073437,8.24299787 75.2817187,5.03643404 71.3025,5.03643404 Z" id="Shape" fill="#2C3F4F"></path>
                        <path d="M32.8324306,5.61128382 L18.0914931,2.12561148 C16.5200868,1.75408808 14.8672743,2.21926893 13.7250868,3.35465191 L9.53321181,7.52139871 L7.75664931,7.52139871 C5.18727431,7.52139871 3.10430556,9.59195829 3.10430556,12.1460264 C3.10430556,12.1460264 2.86961806,17.8199902 3.10430556,19.6920519 C3.38305556,21.9162221 5.31743056,28.3837115 5.31743056,28.3837115 L36.7574306,28.3837115 L42.6489931,5.20667744 C42.9508681,4.01770935 41.5618056,3.12695403 40.5964931,3.89050297 C38.4118056,5.6192051 35.5488368,6.2535285 32.8324306,5.61128382 Z" id="Shape" fill="#F9DC6A"></path>
                        <path d="M39.8965625,3.28401365 C39.2832813,3.76923067 38.6151563,4.16498386 37.913125,4.47375833 C37.9065625,4.51584982 37.9025,4.55732003 37.8915625,4.60018812 L32,27.7772222 L36.0573438,27.7772222 L41.9489063,4.60018812 C42.2509375,3.41106471 40.861875,2.52030939 39.8965625,3.28401365 Z" id="Shape" fill="#E5AC51"></path>
                        <path d="M69.3564062,48 L52.0335937,48 L7,48 L7,57.3587553 L49.2825,57.3587553 L49.2825,71.9217894 L77.7364062,71.9217894 L77.7364062,56.3299213 C77.7364062,51.7293681 73.9845312,48 69.3564062,48 Z" id="Shape" fill="#2BB4F3"></path>
                        <path d="M69.5871875,48 L66,48 C70.628125,48 74.3798437,51.7293681 74.3798437,56.3299213 L74.3798437,71.9217894 L77.9670312,71.9217894 L77.9670312,56.3299213 C77.9671875,51.7293681 74.2153125,48 69.5871875,48 Z" id="Shape" fill="#1687C4"></path>
                        <path d="M42.0826562,57.3587553 L42.0826562,56.3299213 C42.0826562,51.7295234 38.3310937,48.0003106 33.7032812,48 L16.379375,48 C11.7515625,48.0001553 8,51.7295234 8,56.3299213 L8,57.3587553 L42.0826562,57.3587553 Z" id="Shape" fill="#1687C4"></path>
                        <path d="M56,39 L56,49.1164021 C56,51.8882277 61.0489063,54.6852149 61.0489063,54.6852149 C61.0489063,54.6852149 66.0978125,51.8882277 66.0978125,49.1164021 L66.0978125,39 L56,39 Z" id="Shape" fill="#F2A077"></path>
                        <path d="M78.2845312,27.6792574 L78.2845312,29.1569638 C78.2845312,30.8820936 76.8792187,32.2808979 75.14375,32.2808979 L74.0778125,32.2808979 C73.651875,40.4300277 66.0482812,46.0897021 58.5878125,44.798534 L58.5859375,44.798534 C52.3596875,43.8489128 47.540625,38.6551957 47.2085937,32.2808979 L46.1426563,32.2808979 C44.4071875,32.2808979 43,30.8820936 43,29.1569638 L43,27.6792574 C43,25.9541277 44.4071875,24.5553234 46.1426563,24.5553234 L47.1882813,24.5553234 L47.1882813,17.7757979 C47.1882813,17.5942298 47.1920312,17.4146809 47.20125,17.2368404 C49.0454688,17.5906574 50.950625,17.773934 52.898125,17.773934 C58.8329687,17.773934 64.3657812,16.0652681 69.02625,13.1137383 C70.0479687,12.4683872 71.0292188,11.762617 71.9623438,11 C73.27625,12.8458128 74.0960938,15.2430085 74.0960938,17.7757979 L74.0960938,24.5553234 L75.1435938,24.5553234 C76.8792188,24.5553234 78.2845312,25.954283 78.2845312,27.6792574 Z" id="Shape" fill="#FFCCAA"></path>
                        <path d="M75.5560938,24.5553234 L74.5085937,24.5553234 L74.5085937,21.7876915 L74.5071875,21.7876915 C74.5065625,17.1925745 74.5060937,17.5526043 74.5048437,17.4879915 C74.445,15.0511894 73.6320312,12.7662894 72.3746875,11 C71.4414062,11.762617 70.4603125,12.4683872 69.4385937,13.1137383 C70.0528125,14.5454702 70.3939063,16.1202511 70.3939063,17.7757979 L70.3939063,24.5553234 L70.3735937,32.2808979 C70.1892187,35.8099043 68.6307812,38.9796574 66.2165625,41.2658 C64.2726562,43.1081957 61.775625,44.3732702 59,44.798534 C65.8075,45.9766298 72.7328125,41.3672234 74.2170312,34.3603106 C74.2171875,34.3598447 74.2171875,34.3593787 74.2173437,34.3589128 C74.2878125,34.0259085 74.3464063,33.6877787 74.3917187,33.3442128 C74.393125,33.3338064 74.3942187,33.3232447 74.395625,33.3128383 C74.4145312,33.1673043 74.430625,33.0208383 74.445,32.8735957 C74.4485937,32.8366298 74.4521875,32.7998191 74.4554687,32.7628532 C74.4695312,32.6030298 74.481875,32.4425851 74.4903125,32.2807426 L74.50875,32.2807426 L75.55625,32.2807426 C77.2917187,32.2807426 78.6970312,30.8819383 78.6970312,29.1568085 L78.6970312,27.6791021 C78.696875,25.954283 77.2915625,24.5553234 75.5560938,24.5553234 Z" id="Shape" fill="#F2A077"></path>
                        <path d="M38.0826562,71.9217894 L4,71.9217894 L4,56.3299213 C4,51.7293681 7.75171875,48 12.3798438,48 L29.7028125,48 C34.3309375,48 38.0826562,51.7293681 38.0826562,56.3299213 L38.0826562,71.9217894 Z" id="Shape" fill="#FF5A59"></path>
                        <path d="M29.5871875,48 L26,48 C30.628125,48 34.3798437,51.7293681 34.3798437,56.3299213 L34.3798437,71.9217894 L37.9670312,71.9217894 L37.9670312,56.3299213 C37.9670312,51.7293681 34.2153125,48 29.5871875,48 Z" id="Shape" fill="#CE3A4C"></path>
                        <path d="M16,39 L16,49.1164021 C16,51.8882277 18.2604688,54.1352298 21.0489063,54.1352298 C23.8373438,54.1352298 26.0978125,51.8882277 26.0978125,49.1164021 L26.0978125,39 L16,39 Z" id="Shape" fill="#F2A077"></path>
                        <path d="M38.2845313,26.9192915 L38.2845313,28.3969979 C38.2845313,30.1221277 36.8773438,31.5209319 35.141875,31.5209319 L34.0759375,31.5209319 C33.9351562,34.1069957 33.03875,36.5396043 31.7725,38.3315213 C31.7725,38.3333851 31.770625,38.3333851 31.770625,38.3352489 C29.23875,42.2062681 24.025625,44.8558574 18.5859375,44.0385681 L18.5840625,44.0385681 C12.3578125,43.0889468 7.53875,37.8952298 7.20671875,31.5209319 L6.14078125,31.5209319 C4.4053125,31.5209319 3,30.1221277 3,28.3969979 L3,26.9192915 C3,25.1941617 4.4053125,23.7953574 6.14078125,23.7953574 L7.18828125,23.7953574 L7.18828125,18.8784191 C10.7975,18.6364319 11.965,17.5364617 11.965,14 C11.965,14 16.5571875,22.1306468 29.9798438,19.7070468 C31.2690625,19.4742234 32.6392188,19.1441702 34.09625,18.7005787 L34.09625,23.7952021 L35.141875,23.7952021 C36.8773438,23.7953574 38.2845313,25.194317 38.2845313,26.9192915 Z" id="Shape" fill="#FFCCAA"></path>
                        <path d="M35.5560937,24.0947787 L34.5104687,24.0947787 L34.5104687,23.1603787 L34.5104687,19 C33.0534375,19.4435915 31.683125,19.7736447 30.3940625,20.0064681 L30.3940625,24.0946234 L30.37375,31.8201979 C30.189375,35.3492043 28.6309375,38.5189574 26.2167187,40.8051 C24.2728125,42.6474957 21.7775,43.9125702 19,44.337834 C24.4378125,45.1548128 29.6621875,42.4910894 32.1846875,38.6345149 C32.1846875,38.6326511 32.1865625,38.6326511 32.1865625,38.6307872 C32.9990625,37.6025745 33.8679687,35.6700936 34.2729687,33.5489 L34.2804687,33.5489 C34.3525,33.161534 34.4079687,32.7676447 34.446875,32.3695617 C34.4484375,32.3537191 34.4503125,32.3380319 34.451875,32.3221894 C34.4675,32.1555319 34.4809375,31.9882532 34.4901562,31.8201979 L34.5104688,31.8201979 L35.5560938,31.8201979 C37.2915625,31.8201979 38.69875,30.4213936 38.69875,28.6962638 L38.69875,27.2185574 C38.69875,25.4937383 37.2915625,24.0947787 35.5560937,24.0947787 Z" id="Shape" fill="#F2A077"></path>
                        <path d="M6.775,58.1450255 L3.92109375,58.1450255 C2.3078125,58.1450255 1,56.8450043 1,55.241334 L1,48.9036915 C1,47.3000213 2.3078125,46 3.92109375,46 L6.775,46 C7.9603125,46 8.92109375,46.9550574 8.92109375,48.1333085 L8.92109375,56.011717 C8.92109375,57.1899681 7.96015625,58.1450255 6.775,58.1450255 Z" id="Shape" fill="#FFCCAA"></path>
                        <path d="M55.0854806,32.6013077 C55.4175118,33.4189077 55.9064181,34.1520141 56.5395431,34.781212 C57.7920431,36.0234546 59.4546993,36.7074801 61.2212618,36.7074801 C63.9306368,36.7074801 66.3387618,35.0963546 67.3561056,32.6031716 C67.5993868,32.0070567 67.3103243,31.3276907 66.7106368,31.0858588 C66.1106368,30.8440269 65.4275118,31.1313673 65.1840743,31.7274822 C64.5271993,33.3373652 62.9717306,34.3776929 61.2212618,34.3776929 C60.0796993,34.3776929 59.0048556,33.9351886 58.1957931,33.1328099 C57.7876681,32.7271163 57.4725118,32.254946 57.2590743,31.7291907 C57.0167306,31.1327652 56.3339181,30.8440269 55.7336056,31.0850822 C55.1332931,31.3258269 54.8432931,32.0045716 55.0854806,32.6013077 Z" id="Shape" fill="#000000"></path>
                        <path d="M54.171875,25.9757596 C54.8192187,25.9757596 55.34375,25.4541979 55.34375,24.810866 L55.34375,24.1648936 C55.34375,23.5215617 54.8192187,23 54.171875,23 C53.5245313,23 53,23.5215617 53,24.1648936 L53,24.810866 C53,25.4541979 53.5245312,25.9757596 54.171875,25.9757596 Z" id="Shape" fill="#000000"></path>
                        <path d="M67.171875,25.9757596 C67.8192187,25.9757596 68.34375,25.4541979 68.34375,24.810866 L68.34375,24.1648936 C68.34375,23.5215617 67.8192187,23 67.171875,23 C66.5245313,23 66,23.5215617 66,24.1648936 L66,24.810866 C66,25.4541979 66.5245313,25.9757596 67.171875,25.9757596 Z" id="Shape" fill="#000000"></path>
                        <path d="M20.221083,36.707391 C22.930458,36.707391 25.338583,35.0962654 26.3559267,32.6030824 C26.599208,32.0069676 26.3101455,31.3276016 25.710458,31.0857697 C25.1103017,30.8439378 24.427333,31.1312782 24.1838955,31.7273931 C23.5270205,33.3372761 21.9715517,34.3776037 20.221083,34.3776037 C19.0795205,34.3776037 18.0046767,33.9350995 17.1956142,33.1328761 C16.787333,32.7268718 16.4720205,32.2547016 16.2588955,31.7294122 C16.016708,31.1328314 15.3340517,30.8440931 14.7337392,31.0849931 C14.1334267,31.3257378 13.8432705,32.0044824 14.085458,32.6010633 C14.4171767,33.4183527 14.9059267,34.151459 15.5393642,34.7812782 C16.7920205,36.0233654 18.4546767,36.707391 20.221083,36.707391 Z" id="Shape" fill="#000000"></path>
                        <path d="M15.34375,24.810866 L15.34375,24.1648936 C15.34375,23.5215617 14.8192188,23 14.171875,23 C13.5245312,23 13,23.5215617 13,24.1648936 L13,24.810866 C13,25.4541979 13.5245312,25.9757596 14.171875,25.9757596 C14.8192188,25.9757596 15.34375,25.4541979 15.34375,24.810866 Z" id="Shape" fill="#000000"></path>
                        <path d="M27.171875,25.9757596 C27.8192188,25.9757596 28.34375,25.4541979 28.34375,24.810866 L28.34375,24.1648936 C28.34375,23.5215617 27.8192188,23 27.171875,23 C26.5245312,23 26,23.5215617 26,24.1648936 L26,24.810866 C26,25.4541979 26.5245312,25.9757596 27.171875,25.9757596 Z" id="Shape" fill="#000000"></path>
                        <path d="M78.828125,16.7604894 C79.4754687,16.7604894 80,16.2389277 80,15.5955957 L80,12.3634043 C80,7.77201489 76.2421875,4.03674468 71.6234375,4.03674468 L70.0479687,4.03674468 L69.8567187,3.59719149 C68.905,1.41200638 66.7423437,0 64.346875,0 L56.5734375,0 C48.300625,0 41.5701562,6.69021702 41.5701562,14.9137447 L41.5701562,38.6993191 C41.5701562,42.1474043 44.3921875,44.9524681 47.8607812,44.9524681 L54.5639062,44.9524681 L54.5639062,46.5972979 L29.259375,46.5972979 L26.8171875,46.5972979 L26.8171875,44.3740596 C28.2239062,43.716283 29.5298437,42.8342255 30.6828125,41.7423319 C33.1315625,39.4235723 34.6765625,36.3802489 35.1020313,33.0787851 C37.4790625,33.0764553 39.4120313,31.1534489 39.4120313,28.7899574 L39.4120313,27.3122511 C39.4120313,26.2664872 39.0326563,25.3077021 38.4048438,24.5626362 L41.101875,13.9518532 C41.2604688,13.3280915 40.8803125,12.6947 40.2526563,12.5370511 C39.6260938,12.3800234 38.9879688,12.7572936 38.8295313,13.3810553 L36.3328125,23.2035936 C35.9796875,23.0984426 35.6082813,23.0363149 35.22375,23.0252872 L35.22375,19.0936936 C35.22375,18.7241894 35.0473438,18.3765851 34.7484375,18.1569638 C34.4495312,17.9373426 34.063125,17.8714872 33.708125,17.9800553 C27.2860938,19.9384745 21.6576563,19.8350319 17.4315625,17.680134 C14.265625,16.0657468 12.9523438,13.8400234 12.9425,13.8229383 C12.6815625,13.3608638 12.1392188,13.132234 11.6240625,13.2662745 C11.1082813,13.4003149 10.7485938,13.8634766 10.7485938,14.3932702 C10.7485938,17.2787894 10.1289063,17.9039489 7.065,18.1094362 C6.4496875,18.1507511 5.97203125,18.6588 5.97203125,19.2716894 L5.97203125,23.0254426 C5.54484375,23.0375574 5.133125,23.1121106 4.7453125,23.2396277 C4.23921875,21.3330851 3.91796875,19.9184383 3.82671875,19.1857979 C3.644375,17.7281277 3.77078125,13.3819872 3.83484375,11.8305043 C3.83546875,11.8145064 3.83578125,11.7986638 3.83578125,11.782666 C3.83578125,9.87534681 5.39671875,8.32370851 7.315625,8.32370851 L9.0921875,8.32370851 C9.40296875,8.32370851 9.7009375,8.20100638 9.9209375,7.98247234 L14.1128125,3.81525957 C14.9617188,2.97156596 16.2134375,2.61945745 17.3803125,2.89623617 L32.1204688,6.38144255 C32.8971875,6.56534043 33.6960938,6.65853191 34.4951563,6.65853191 C36.8075,6.65853191 39.0771875,5.87013191 40.8860938,4.43871064 C40.9153125,4.41556809 40.9517188,4.38636809 41.0226563,4.43203191 C41.0934375,4.47738511 41.0820313,4.52211702 41.0729688,4.55768511 L40.1854688,8.04925957 C40.026875,8.67302128 40.4070313,9.30641277 41.0346875,9.4640617 C41.6620313,9.62171064 42.2995313,9.24381915 42.4578125,8.62005745 L43.3454688,5.12817234 C43.6079688,4.09405745 43.1946875,3.05233191 42.2929688,2.47423404 C41.3907813,1.89582553 40.2654688,1.95174043 39.42625,2.61635106 C38.0304688,3.72082553 36.2792188,4.32905532 34.495,4.32905532 C33.8785938,4.32905532 33.2621875,4.25714255 32.6629688,4.11533617 L17.9234375,0.62966383 C15.9709375,0.166657447 13.8759375,0.755938298 12.455625,2.16763404 L8.606875,5.99376596 L7.315625,5.99376596 C4.11296875,5.99376596 1.50578125,8.57703404 1.49203125,11.7575043 C1.47375,12.209483 1.26265625,17.5690809 1.5009375,19.472517 C1.6209375,20.4370489 2.02578125,22.1845447 2.7040625,24.6684085 C2.12828125,25.3974766 1.78375,26.3154128 1.78375,27.3124064 L1.78375,28.7901128 C1.78375,31.1532936 3.715625,33.0763 6.09140625,33.0789404 C6.7384375,38.1139213 9.959375,42.3087809 14.3764063,44.3731277 L14.3764063,46.5972979 L11.9359375,46.5972979 C11.22,46.5972979 10.5145313,46.6760447 9.826875,46.8302766 C9.25484375,45.8360787 8.179375,45.1630809 6.946875,45.1630809 L4.09296875,45.1630809 C1.83609375,45.1630809 0,46.9882362 0,49.231666 L0,55.5691532 C0,57.2065277 0.97859375,58.6200872 2.384375,59.264817 L2.384375,71.6827383 C2.384375,72.3260702 2.90890625,72.8476319 3.55625,72.8476319 L37.6390625,72.8476319 C38.2864062,72.8476319 38.8109375,72.3260702 38.8109375,71.6827383 L38.8109375,56.0919574 C38.8109375,53.2340851 37.5323437,50.6691447 35.5160937,48.9270851 L54.5640625,48.9270851 L54.5640625,49.5079787 C54.5640625,52.8678426 59.6371875,55.7747957 60.215625,56.0952191 C60.3929687,56.1933809 60.5895312,56.242617 60.7859375,56.242617 C60.9826562,56.242617 61.1792187,56.1935362 61.3564062,56.0952191 C61.9346875,55.7747957 67.0060938,52.8676872 67.0060938,49.5079787 L67.0060938,48.9270851 L69.4467188,48.9270851 C73.42125,48.9270851 76.6545313,52.1412596 76.6545313,56.0919574 L76.6545313,70.518 L73.3698438,70.518 L73.3698438,62.7132128 C73.3698438,62.0698809 72.8453125,61.5483191 72.1979688,61.5483191 C71.550625,61.5483191 71.0260938,62.0698809 71.0260938,62.7132128 L71.0260938,70.518 L50.5453125,70.518 L50.5453125,57.1201702 C50.5453125,56.4768383 50.0207812,55.9552766 49.3734375,55.9552766 L42.34375,55.9552766 C41.6964063,55.9552766 41.171875,56.4768383 41.171875,57.1201702 C41.171875,57.7635021 41.6964063,58.2850638 42.34375,58.2850638 L48.2015625,58.2850638 L48.2015625,71.6828936 C48.2015625,72.3262255 48.7260938,72.8477872 49.3734375,72.8477872 L77.8265625,72.8477872 C78.4739062,72.8477872 78.9984375,72.3262255 78.9984375,71.6828936 L78.9984375,56.0919574 C78.9984375,50.8566149 74.7135938,46.5972979 69.446875,46.5972979 L67.00625,46.5972979 L67.00625,44.9524681 L73.7109375,44.9524681 C77.17875,44.9524681 80,42.1472489 80,38.6993191 L80,21.0954468 C80,20.4521149 79.4754687,19.9305532 78.828125,19.9305532 C78.1807813,19.9305532 77.65625,20.4521149 77.65625,21.0954468 L77.65625,23.7319894 C77.0079688,23.3061043 76.2384375,23.0485851 75.4104688,23.0251319 L75.4104688,17.4087915 C75.4104688,14.7315553 74.6,12.1585383 73.0667188,9.9677617 C72.8801562,9.7009234 72.5896875,9.52385957 72.2659375,9.47912766 C71.9420312,9.43424043 71.6142188,9.52634468 71.3614063,9.73245319 C66.2148438,13.9302638 59.7084375,16.242034 53.040625,16.242034 C51.1928125,16.242034 49.3507813,16.0683872 47.565625,15.7259085 C47.233125,15.6622277 46.8879688,15.7447021 46.6209375,15.9526745 C46.3539063,16.1606468 46.190625,16.4734596 46.1732813,16.8101915 C46.1634375,16.9996809 46.15875,17.1955383 46.15875,17.4087915 L46.15875,23.0252872 C45.33125,23.0490511 44.5621875,23.3065702 43.9140625,23.7321447 L43.9140625,14.9137447 C43.9140625,7.97501702 49.593125,2.32978723 56.5735938,2.32978723 L64.3470313,2.32978723 C65.8073438,2.32978723 67.1257813,3.19056596 67.7057813,4.52258298 L68.2026563,5.66417872 C68.3882813,6.09052979 68.8109375,6.36653191 69.2782813,6.36653191 L71.6235937,6.36653191 C74.9501563,6.36653191 77.6564063,9.05665957 77.6564063,12.3634043 L77.6564063,15.5955957 C77.65625,16.2389277 78.1807813,16.7604894 78.828125,16.7604894 Z M8.33265625,31.853783 C8.30046875,31.2346809 7.78609375,30.7489979 7.16234375,30.7489979 L6.09640625,30.7489979 C5.01078125,30.7489979 4.1275,29.8702021 4.1275,28.7899574 L4.1275,27.3122511 C4.1275,26.2320064 5.010625,25.3532106 6.09640625,25.3532106 L7.1440625,25.3532106 C7.79140625,25.3532106 8.3159375,24.8316489 8.3159375,24.188317 L8.3159375,20.3222681 C10.758125,19.9757511 12.1326563,19.0300128 12.7298438,17.1865298 C13.5648437,17.9885979 14.7089062,18.8888277 16.2096875,19.6742766 C21.6815625,22.5378957 28.0525,21.8970489 32.88,20.6363234 L32.88,24.188317 C32.88,24.8316489 33.4045312,25.3532106 34.051875,25.3532106 L35.0975,25.3532106 C36.1840625,25.3532106 37.068125,26.2320064 37.068125,27.3122511 L37.068125,28.7899574 C37.068125,29.8702021 36.1840625,30.7489979 35.0975,30.7489979 L34.0315625,30.7489979 C33.4079687,30.7489979 32.8935938,31.2343702 32.86125,31.8534723 C32.6978125,34.9798915 31.35,37.8927468 29.06625,40.0554106 C27.9303125,41.1311511 26.6185937,41.9666128 25.1992187,42.536634 C25.191875,42.5395851 25.1846875,42.5426915 25.1773437,42.5459532 C23.7379688,43.1207894 22.1882812,43.4225745 20.5978125,43.4225745 C18.9817187,43.4225745 17.4365625,43.1113149 16.0201562,42.5462638 C15.998125,42.536634 15.9753125,42.5282468 15.9526562,42.5198596 C11.67125,40.7826149 8.5853125,36.7126319 8.33265625,31.853783 Z M20.5979687,45.7523617 C21.9232813,45.7523617 23.2239063,45.5729681 24.4734375,45.2328191 L24.4734375,47.7621915 L24.4734375,49.5079787 C24.4734375,50.5379 24.0704687,51.5056936 23.3384375,52.2332085 C22.6067187,52.9607234 21.633125,53.3612915 20.596875,53.3612915 C18.4592188,53.3612915 16.7201562,51.6327447 16.7201562,49.5078234 L16.7201562,47.7621915 L16.7201562,45.2335957 C17.9565625,45.5703277 19.2564063,45.7523617 20.5979687,45.7523617 Z M2.34375,49.231666 C2.34375,48.2728809 3.1284375,47.4928681 4.09296875,47.4928681 L6.946875,47.4928681 C7.4840625,47.4928681 7.9209375,47.9272957 7.9209375,48.461283 L7.9209375,56.3396915 C7.9209375,56.8736787 7.48390625,57.3081064 6.946875,57.3081064 L4.09296875,57.3081064 C3.1284375,57.3081064 2.34375,56.5280936 2.34375,55.5693085 L2.34375,49.231666 Z M36.4671875,56.0919574 L36.4671875,70.518 L33.1817188,70.518 L33.1817188,62.7132128 C33.1817188,62.0698809 32.6571875,61.5483191 32.0098438,61.5483191 C31.3625,61.5483191 30.8379688,62.0698809 30.8379688,62.7132128 L30.8379688,70.518 L10.3564062,70.518 L10.3564062,62.7132128 C10.3564062,62.0698809 9.831875,61.5483191 9.18453125,61.5483191 C8.5371875,61.5483191 8.01265625,62.0698809 8.01265625,62.7132128 L8.01265625,70.518 L4.728125,70.518 L4.728125,59.6378936 L6.946875,59.6378936 C8.77640625,59.6378936 10.2646875,58.1583234 10.2646875,56.3396915 L10.2646875,49.1217 C10.808125,48.9934064 11.3671875,48.9270851 11.9357813,48.9270851 L14.3764063,48.9270851 L14.3764063,49.5079787 C14.3764063,52.9173894 17.166875,55.691234 20.596875,55.691234 C22.2592188,55.691234 23.8214063,55.0482128 24.9957813,53.8806787 C26.1703125,52.7131447 26.8170313,51.1602638 26.8170313,49.5079787 L26.8170313,48.9270851 L29.2592188,48.9270851 C33.23375,48.9270851 36.4671875,52.1412596 36.4671875,56.0919574 Z M64.6625,49.5079787 C64.6625,50.7993021 62.5535937,52.6236809 60.7859375,53.7236511 C59.0170312,52.6233702 56.9078125,50.7991468 56.9078125,49.5079787 L56.9078125,45.2335957 C58.1439063,45.5703277 59.4434375,45.7522064 60.7846875,45.7522064 C62.1109375,45.7522064 63.4123438,45.5726574 64.6625,45.2323532 L64.6625,49.5079787 Z M77.65625,38.6993191 C77.65625,40.8627596 75.8864062,42.6226809 73.7109375,42.6226809 L69.850625,42.6226809 C70.2023437,42.3459021 70.5434375,42.0528149 70.8717187,41.7420213 C73.3201562,39.4218638 74.8651562,36.3783851 75.290625,33.0787851 C76.1639062,33.0778532 76.9767188,32.8167617 77.65625,32.3705298 L77.65625,38.6993191 Z M44.3142187,27.3122511 C44.3142187,26.2320064 45.1982812,25.3532106 46.2848437,25.3532106 L47.3304687,25.3532106 C47.9778125,25.3532106 48.5023437,24.8316489 48.5023437,24.188317 L48.5023437,18.2459617 C49.9957812,18.4624766 51.5167187,18.5719766 53.0404687,18.5719766 C59.8015625,18.5719766 66.409375,16.3731234 71.7948437,12.3553277 C72.63,13.9023064 73.0665625,15.6272809 73.0665625,17.4089468 L73.0665625,24.1884723 C73.0665625,24.8318043 73.5910937,25.353366 74.2384375,25.353366 L75.2860937,25.353366 C76.3717187,25.353366 77.255,26.2321617 77.255,27.3124064 L77.255,28.7901128 C77.255,29.8703574 76.371875,30.7491532 75.2860937,30.7491532 L74.2201562,30.7491532 C73.5965625,30.7491532 73.0821875,31.2345255 73.0498437,31.8536277 C72.8865625,34.9783383 71.5385937,37.8913489 69.2548437,40.055566 C68.124375,41.1260255 66.8195312,41.9582255 65.4078125,42.5280915 C65.3870312,42.5361681 65.3665625,42.544866 65.34625,42.5541851 C63.9120312,43.1240511 62.3684375,43.4227298 60.7845312,43.4227298 C59.1690625,43.4227298 57.624375,43.1116255 56.2084375,42.5467298 C56.1857812,42.5367894 56.1625,42.5282468 56.1392187,42.5197043 C51.8589062,40.7823043 48.77375,36.7124766 48.52125,31.8539383 C48.4890625,31.2348362 47.9746875,30.7491532 47.3509375,30.7491532 L46.285,30.7491532 C45.1984375,30.7491532 44.314375,29.8703574 44.314375,28.7901128 L44.314375,27.3122511 L44.3142187,27.3122511 Z M46.28,33.0787851 C46.7778125,36.9533766 48.8004687,40.3303255 51.718125,42.6226809 L47.8609375,42.6226809 C45.6845313,42.6226809 43.9140625,40.8626043 43.9140625,38.6993191 L43.9140625,32.3706851 C44.5935937,32.8167617 45.4065625,33.0778532 46.28,33.0787851 Z" id="Shape" fill="#000000"></path>
                    </g>
                </g>
            </g>
        </g>
    </g>
</svg>