<?xml version="1.0" encoding="UTF-8"?>
<svg width="60px" height="60px" viewBox="0 0 60 60" version="1.1" xmlns="http://www.w3.org/2000/svg" xmlns:xlink="http://www.w3.org/1999/xlink">
    <!-- Generator: sketchtool 51.2 (57519) - http://www.bohemiancoding.com/sketch -->
    <title>32F2A2BD-0BA7-437D-9B3C-90FC6CD2E4F3</title>
    <desc>Created with sketchtool.</desc>
    <defs></defs>
    <g id="Page-1" stroke="none" stroke-width="1" fill="none" fill-rule="evenodd">
        <g id="Artboard-(1)" transform="translate(-480.000000, -2028.000000)" fill-rule="nonzero">
            <g id="Group-2" transform="translate(450.000000, 1986.000000)">
                <g id="parents" transform="translate(30.000000, 42.000000)">
                    <rect id="Rectangle-path" fill="#543221" x="45.9943359" y="56.8925146" width="1.99980469" height="1.99590643"></rect>
                    <path d="M54.9972656,14.9762573 L54.4973438,7.99076023 C54.2244141,4.05789474 50.9487891,1.00619883 46.9981641,1.00526316 C43.0476563,1.00631579 39.7720313,4.05789474 39.4989844,7.99076023 L38.9990625,14.9762573 L54.9972656,14.9762573 Z" id="Shape" fill="#475D6D"></path>
                    <path d="M7.00289062,3.99906433 L7.00289062,8.98877193 C7.00289062,11.1932164 8.79363281,12.9804678 11.0023828,12.9804678 C13.2111328,12.9804678 15.001875,11.1932164 15.001875,8.98877193 L15.001875,3.99906433 L7.00289062,3.99906433 Z" id="Shape" fill="#FEC9A3"></path>
                    <path d="M12.0023437,3.99906433 L12.0023437,8.98877193 C11.9992969,10.6123977 11.0104687,12.0723977 9.50261719,12.6811696 C9.97851562,12.8777778 10.4874609,12.9795322 11.0025,12.9805848 C13.21125,12.9805848 15.0019922,11.1933333 15.0019922,8.98888889 L15.0019922,3.99906433 L12.0023437,3.99906433 Z" id="Shape" fill="#F7BB8F"></path>
                    <polygon id="Shape" fill="#E1E6E9" points="17.0016797 31.9411696 17.0016797 56.8895906 18.0016406 58.8853801 4.00324219 58.8853801 5.00308594 56.8895906 5.00308594 31.9411696"></polygon>
                    <rect id="Rectangle-path" fill="#543221" x="9.99855469" y="35.9359064" width="1.99980469" height="22.9525146"></rect>
                    <path d="M6.00304688,1.00526316 L6.62296875,3.49017544 C6.84691406,4.37637427 7.64683594,4.99707602 8.56277344,4.99707602 L15.0019922,4.99707602 L15.0019922,3.20070175 C14.9969531,1.99017544 14.0151563,1.0102924 12.8022656,1.00526316 L6.00304688,1.00526316 Z" id="Shape" fill="#F9DC6A"></path>
                    <rect id="Rectangle-path" fill="#FEC9A3" x="41.9948437" y="39.9276023" width="9.99878906" height="16.9649123"></rect>
                    <rect id="Rectangle-path" fill="#F7BB8F" x="41.9948437" y="39.9276023" width="9.99878906" height="1.99590643"></rect>
                    <polygon id="Shape" fill="#75462E" points="41.9988281 56.8895906 40.9989844 58.8853801 52.9975781 58.8853801 51.9976172 56.8895906"></polygon>
                    <rect id="Rectangle-path" fill="#F7BB8F" x="45.9943359" y="39.9276023" width="1.99980469" height="18.9607018"></rect>
                    <path d="M50.9977734,5.9948538 L50.9977734,9.98654971 C50.9977734,12.1909942 49.2070312,13.9782456 46.9982812,13.9782456 C44.7895312,13.9782456 42.9987891,12.1909942 42.9987891,9.98654971 L42.9987891,7.99076023 L47.9982422,3.99906433 L50.9977734,5.9948538 Z" id="Shape" fill="#FEC9A3"></path>
                    <path d="M47.998125,3.99906433 L47.0882813,4.72760234 L48.9980859,5.99497076 L48.9980859,9.98666667 C48.9921094,11.8018713 47.7591797,13.3846784 45.9984375,13.8387135 C46.3244531,13.9265497 46.6603125,13.9734503 46.9982813,13.9784795 C49.2070313,13.9784795 50.9977734,12.1912281 50.9977734,9.98678363 L50.9977734,5.9948538 L47.998125,3.99906433 Z" id="Shape" fill="#F7BB8F"></path>
                    <path d="M41.9988281,13.9782327 L40.6189453,13.9783626 C39.1101563,13.9644444 37.8253125,15.0711111 37.6192969,16.5630409 L36.6194531,23.9577778 L31.0000781,27.9494737 L31.0000781,32.9391813 L39.9990234,26.9515789 L41.9988281,13.9782327 Z" id="Shape" fill="#FEC9A3"></path>
                    <path d="M56.3471484,16.5630409 C56.1411328,15.0711111 54.8562891,13.9644444 53.3475,13.9783626 L51.9976172,13.9782327 L55.3372266,35.9328655 L58.9967578,35.9328655 L56.3471484,16.5630409 Z" id="Shape" fill="#FEC9A3"></path>
                    <rect id="Rectangle-path" fill="#FEC9A3" x="42.9946875" y="13.9814035" width="7.99910156" height="6.98549708"></rect>
                    <rect id="Rectangle-path" fill="#FEC9A3" x="0.999609375" y="18.9709942" width="3.99949219" height="16.9649123"></rect>
                    <path d="M20.7213281,14.9762573 C20.2983984,13.7826901 19.1695312,12.9843275 17.9016797,12.9803509 L5.00308594,12.9803509 C2.79433594,12.9803509 1.00359375,14.7676023 1.00359375,16.9720468 L1.00359375,18.9679532 L5.00308594,18.9679532 L5.00308594,31.9410526 L17.0016797,31.9410526 L17.0016797,17.9700585 L17.7116016,19.5567251 L21.5511328,17.2415205 L20.7213281,14.9762573 Z" id="Shape" fill="#A0D755"></path>
                    <polygon id="Shape" fill="#FEC9A3" points="24.0009375 23.9576608 21.55125 17.2416374 17.7116016 19.5568421 21.0012891 26.951462 28.0004297 30.9432749 29.0002734 26.951462"></polygon>
                    <polygon id="Shape" fill="#2BB4F3" points="51.9976172 13.9783626 55.9972266 39.9246784 37.9992188 39.9246784 41.9988281 13.9783626 43.9986328 13.9783626 46.9982813 18.9680702 49.9979297 13.9783626"></polygon>
                    <path d="M34.9995703,27.9494737 C34.9975781,27.1231579 34.7396484,26.3178947 34.2596484,25.6442105 L31.0000781,27.9494737 L31.0000781,32.9391813 L34.9995703,30.3046784 C34.9995703,30.1849123 34.9995703,30.0651462 34.9995703,29.9453801 L34.9995703,27.9494737 Z" id="Shape" fill="#F0B184"></path>
                    <polygon id="Shape" fill="#E1E6E9" points="33.9997266 56.8895906 33.9997266 44.914386 26.000625 44.914386 26.000625 56.8895906 25.0007812 58.8853801 34.9995703 58.8853801"></polygon>
                    <rect id="Rectangle-path" fill="#543221" x="28.9962891" y="47.9111111" width="1.99980469" height="10.9773099"></rect>
                    <path d="M33.9997266,39.9246784 L37.9992188,39.9246784 L37.9992188,37.9287719 C37.9992188,35.7243275 36.2084766,33.937076 33.9997266,33.937076 L26.000625,33.937076 C23.791875,33.937076 22.0011328,35.7243275 22.0011328,37.9287719 L22.0011328,39.9246784 L26.000625,39.9246784 L26.000625,44.914386 L33.9997266,44.914386 L33.9997266,39.9246784 Z" id="Shape" fill="#FF5A59"></path>
                    <rect id="Rectangle-path" fill="#FEC9A3" x="21.9971484" y="39.9276023" width="3.99949219" height="7.98350877"></rect>
                    <rect id="Rectangle-path" fill="#FEC9A3" x="33.9957422" y="39.9276023" width="3.99949219" height="7.98350877"></rect>
                    <path d="M29.0002734,26.951462 L26.1005859,25.2150877 C25.3976953,25.9535673 25.0047656,26.9315789 25.0006641,27.9494737 L25.0006641,29.2368421 L28.0003125,30.9432749 L29.0002734,26.951462 Z" id="Shape" fill="#F7BB8F"></path>
                    <path d="M30.0002344,23.9576608 C32.2089844,23.9576608 33.9997266,25.7449123 33.9997266,27.9493567 L33.9997266,29.9452632 C33.9997266,32.1497076 32.2089844,33.9369591 30.0002344,33.9369591 C27.7914844,33.9369591 26.0007422,32.1497076 26.0007422,29.9452632 L26.0007422,27.9493567 C26.000625,25.7450292 27.7904297,23.9576608 30.0002344,23.9576608 Z" id="Shape" fill="#FEC9A3"></path>
                    <path d="M30.0002344,23.9576608 C29.6622656,23.9626901 29.3262891,24.0095906 29.0003906,24.0974269 C30.7611328,24.551462 31.9940625,26.134269 32.0000391,27.9494737 L32.0000391,29.9453801 C31.9940625,31.7605848 30.7611328,33.3433918 29.0003906,33.7974269 C29.3264063,33.8852632 29.6622656,33.9321637 30.0002344,33.937193 C32.2089844,33.937193 33.9997266,32.1499415 33.9997266,29.9454971 L33.9997266,27.9495906 C33.9997266,25.7450292 32.2089844,23.9576608 30.0002344,23.9576608 Z" id="Shape" fill="#F7BB8F"></path>
                    <path d="M33.9997266,27.9494737 C33.9757031,25.7450292 32.1649219,23.9776608 29.9561719,24.0016374 C28.4553516,24.0176608 27.0895312,24.8718129 26.420625,26.2130994 C28.2854297,27.3467836 30.4262109,27.9465497 32.6098828,27.9494737 L33.9997266,27.9494737 Z" id="Shape" fill="#F9DC6A"></path>
                    <path d="M20.7213281,14.9762573 C20.2983984,13.7826901 19.1695313,12.9843275 17.9016797,12.9803509 L17.2617188,12.9803509 C14.2620703,19.7463158 9.19265625,25.1352047 5.00320313,28.7576608 L5.00320313,31.9410526 L17.0017969,31.9410526 L17.0017969,17.9700585 L17.7117188,19.5567251 L21.55125,17.2415205 L20.7213281,14.9762573 Z" id="Shape" fill="#B4E66E"></path>
                    <path d="M38.1992578,38.6473684 L37.9993359,39.9246784 L55.9972266,39.9246784 L54.2574609,28.6181287 C49.6979297,33.937076 42.6587109,37.0705263 38.1992578,38.6473684 Z" id="Shape" fill="#1F9FDA"></path>
                    <path d="M38.7492188,35.0447953 L37.9993359,39.9246784 L39.9991406,39.9246784 L39.9991406,37.9287719 C39.9950391,36.837076 39.5430469,35.7952047 38.7492188,35.0447953 Z" id="Shape" fill="#6EC1D4"></path>
                    <path d="M26.000625,44.914386 L33.9997266,44.914386 L33.9997266,41.1920468 C31.1500781,42.1300585 28.3503516,42.908538 26.000625,43.517193 L26.000625,44.914386 Z" id="Shape" fill="#F03A38"></path>
                    <path d="M1.00359375,36.9308772 L4.00324219,36.9308772 L4.00324219,56.6500585 L3.11332031,58.4363743 C2.86429687,58.9283041 3.06328125,59.5291228 3.55628906,59.7766082 C3.69527344,59.8464327 3.84820312,59.8823392 4.00324219,59.8833918 L18.0016406,59.8833918 C18.5535937,59.8814035 19.0005469,59.4333333 18.9985547,58.8824561 C18.9985547,58.7277193 18.9615234,58.5750877 18.8915625,58.4363743 L18.0016406,56.6500585 L18.0016406,22.7202339 L20.0914453,27.4105263 C20.1754687,27.5981287 20.3153906,27.7548538 20.4914062,27.8596491 L25.0608984,30.5940351 C25.1678906,31.4432749 25.4908594,32.2506433 26.0007422,32.9391813 C23.2400391,32.9391813 21.0012891,35.1735673 21.0012891,37.9288889 L21.0012891,47.9081871 C21.0012891,48.4590643 21.4491797,48.9060819 22.0011328,48.9060819 L25.0007812,48.9060819 L25.0007812,56.6500585 L24.1108594,58.4363743 C23.8618359,58.9283041 24.0608203,59.5291228 24.5538281,59.7766082 C24.6928125,59.8464327 24.8457422,59.8823392 25.0007812,59.8833918 L34.9995703,59.8833918 C35.5515234,59.8814035 35.9984766,59.4333333 35.9964844,58.8824561 C35.9964844,58.7277193 35.9594531,58.5750877 35.8894922,58.4363743 L34.9995703,56.6500585 L34.9995703,48.9060819 L37.9992187,48.9060819 C38.5511719,48.9060819 38.9990625,48.4590643 38.9990625,47.9081871 L38.9990625,40.9226901 L40.9988672,40.9226901 L40.9988672,56.6501754 L40.1089453,58.4364912 C39.8599219,58.9284211 40.0589062,59.5292398 40.5519141,59.7767251 C40.6908984,59.8465497 40.8438281,59.8824561 40.9988672,59.8835088 L52.9974609,59.8835088 C53.5494141,59.8815205 53.9963672,59.4334503 53.994375,58.8825731 C53.994375,58.7278363 53.9573437,58.5752047 53.8873828,58.4364912 L52.9974609,56.6501754 L52.9974609,40.9226901 L55.9971094,40.9226901 C56.5490625,40.928655 57.0019922,40.4876023 57.0079687,39.9357895 C57.0090234,39.8818713 57.0049219,39.8280702 56.9969531,39.7750877 L56.5469531,36.9309942 L58.9966406,36.9309942 C59.2836328,36.9309942 59.5565625,36.8072515 59.7465234,36.5916959 C59.9395312,36.3730994 60.0275391,36.0817544 59.9865234,35.7933333 L57.3367969,16.4334503 C57.2048437,15.4435088 56.7008203,14.5414035 55.9269141,13.908655 L55.4969531,7.92105263 C55.1750391,3.23672515 51.1085156,-0.300935673 46.4150391,0.0203508772 C42.1695703,0.310760234 38.7909375,3.68374269 38.4989062,7.92105263 L38.0689453,13.908655 C37.2950391,14.5414035 36.7911328,15.4435088 36.6590625,16.4334503 L35.6592187,23.4189474 L33.8094141,24.8160234 C32.8784766,23.6644444 31.4826562,22.9838596 29.9998828,22.959883 C28.6810547,22.959883 27.4161328,23.4797661 26.4802734,24.4069006 L24.8305078,23.3091228 L21.6608203,14.6071345 C21.0848437,13.0304094 19.5830859,11.9815205 17.9012109,11.9825731 L15.0015234,11.9825731 C15.6554297,11.1214035 16.0074609,10.0695906 16.0013672,8.98877193 L16.0013672,3.20070175 C15.9963281,1.43929825 14.5665234,0.0122807018 12.8017969,0.00736842105 L6.00257812,0.00736842105 C5.69460937,0.00538011696 5.40363281,0.146081871 5.21261719,0.386549708 C5.01269531,0.624093567 4.93464844,0.941403509 5.00261719,1.24479532 L5.62253906,3.7297076 C5.71148437,4.01812865 5.83957031,4.29356725 6.00246094,4.54807018 L6.00246094,8.98888889 C5.99648437,10.0697076 6.34839844,11.1215205 7.00230469,11.9826901 L5.00308594,11.9826901 C2.24238281,11.9826901 0.0036328125,14.217076 0.0036328125,16.9723977 L0.0036328125,35.9330994 C0.00375,36.4837427 0.450703125,36.9308772 1.00359375,36.9308772 Z M2.0034375,34.9349708 L2.0034375,19.9659649 L4.00324219,19.9659649 L4.00324219,34.9349708 L2.0034375,34.9349708 Z M16.111875,57.3385965 L16.381875,57.8874854 L12.0023437,57.8874854 L12.0023437,35.9329825 L10.0025391,35.9329825 L10.0025391,57.8874854 L5.62300781,57.8874854 L5.89300781,57.3385965 C5.96402344,57.199883 6.00199219,57.0461988 6.00304687,56.8894737 L6.00304687,32.9391813 L16.0018359,32.9391813 L16.0018359,56.8895906 C16.0028906,57.0452632 16.0398047,57.199883 16.111875,57.3385965 Z M33.9997266,32.9391813 C34.2887109,32.562924 34.5216797,32.145848 34.6896094,31.7017544 L38.6891016,29.0373099 L37.8092578,34.7155556 C36.8623828,33.5927485 35.4685547,32.9431579 33.9997266,32.9391813 Z M32.9998828,29.9453801 C32.9998828,31.5989474 31.6570312,32.9391813 30.0002344,32.9391813 C28.3434375,32.9391813 27.0005859,31.5989474 27.0005859,29.9453801 L27.0005859,27.9494737 C26.9955469,27.8596491 26.9955469,27.7698246 27.0005859,27.68 C28.7504297,28.5192982 30.6682031,28.9523977 32.6098828,28.9473684 L32.9998828,28.9473684 L32.9998828,29.9453801 Z M23.0009766,46.9101754 L23.0009766,40.9225731 L25.0007812,40.9225731 L25.0007812,46.9101754 L23.0009766,46.9101754 Z M31.0000781,57.8874854 L31.0000781,47.9081871 L29.0002734,47.9081871 L29.0002734,57.8874854 L26.6205469,57.8876023 L26.8905469,57.3385965 C26.9615625,57.199883 26.9995312,57.0461988 27.0005859,56.8894737 L27.0005859,45.9122807 L32.9998828,45.9122807 L32.9998828,56.8895906 C33.0009375,57.0463158 33.0389062,57.2 33.1099219,57.3387135 L33.3799219,57.8876023 L31.0000781,57.8876023 L31.0000781,57.8874854 Z M36.999375,46.9101754 L34.9995703,46.9101754 L34.9995703,40.9225731 L36.999375,40.9225731 L36.999375,46.9101754 Z M36.999375,38.9267836 L34.9995703,38.9267836 L34.9995703,36.9308772 L32.9997656,36.9308772 L32.9997656,43.9163743 L27.0004687,43.9163743 L27.0004687,36.9308772 L25.0007812,36.9308772 L25.0007812,38.9267836 L23.0009766,38.9267836 L23.0009766,37.9288889 C23.0009766,36.2753216 24.3438281,34.9350877 26.000625,34.9350877 L33.9997266,34.9350877 C35.6565234,34.9350877 36.999375,36.2753216 36.999375,37.9288889 L36.999375,38.9267836 Z M42.88875,57.3385965 C42.9597656,57.199883 42.9977344,57.0461988 42.9987891,56.8894737 L42.9987891,40.9225731 L45.9984375,40.9225731 L45.9984375,57.8874854 L42.61875,57.8874854 L42.88875,57.3385965 Z M51.1076953,57.3385965 L51.3776953,57.8874854 L47.998125,57.8874854 L47.998125,40.9225731 L50.9977734,40.9225731 L50.9977734,56.8894737 C50.9987109,57.0452632 51.0357422,57.199883 51.1076953,57.3385965 Z M39.1691016,38.9267836 L42.8586328,14.9763743 L43.4285156,14.9763743 L46.1382422,19.477076 C46.4201953,19.9511111 47.0330859,20.1077193 47.5080469,19.8263158 C47.6520703,19.7415205 47.7720703,19.6207018 47.8579687,19.477076 L50.5676953,14.9763743 L51.1375781,14.9763743 L54.8271094,38.9267836 L39.1691016,38.9267836 Z M49.9979297,9.98666667 C49.9979297,11.6402339 48.6550781,12.9804678 46.9982812,12.9804678 C45.3414844,12.9804678 43.9986328,11.6402339 43.9986328,9.98666667 L43.9986328,8.46982456 L47.998125,5.23649123 L49.9979297,6.53380117 L49.9979297,9.98666667 Z M48.3580078,14.7667836 L46.9981641,17.0320468 L45.6383203,14.7667836 C46.5233203,15.0461988 47.473125,15.0461988 48.3580078,14.7667836 Z M57.8469141,34.9349708 L56.2371094,34.9349708 L53.1675,14.9761759 L53.3775,14.9762573 C54.384375,14.9672515 55.24125,15.7067836 55.3773047,16.7026901 L57.8469141,34.9349708 Z M40.4989453,8.04070175 C40.7808984,4.45812865 43.9185937,1.78163743 47.5081641,2.06304094 C50.7057422,2.31356725 53.2464844,4.84830409 53.4975,8.04070175 L53.8575,13.0304094 C53.6975391,13.0204678 53.5375781,13.0204678 53.3775,13.0304094 L50.9977734,13.0304094 C51.6516797,12.1692398 52.0037109,11.1174269 51.9976172,10.0366082 L51.9976172,5.9948538 C51.995625,5.6605848 51.8266406,5.35017544 51.5476172,5.16654971 L48.5480859,3.17076023 C48.1991016,2.91929825 47.7271875,2.91929825 47.3782031,3.17076023 L42.37875,7.16245614 C42.1257422,7.36105263 41.9847656,7.66935673 41.9988281,7.99076023 L41.9988281,9.98666667 C41.9928516,11.0674854 42.3447656,12.1192982 42.9986719,12.9804678 L40.6189453,12.9804678 C40.4589844,12.9705263 40.2990234,12.9705263 40.1389453,12.9804678 L40.4989453,8.04070175 Z M37.239375,24.7560234 C37.4523047,24.5973099 37.5923437,24.359883 37.629375,24.0974269 L38.6292187,16.7026901 C38.7651562,15.7067836 39.6221484,14.9672515 40.6290234,14.9762573 L40.8390234,14.9761759 L39.0792187,26.3626901 L34.9996875,29.077076 L34.9996875,27.9493567 C34.9906641,27.4933333 34.9207031,27.0391813 34.7896875,26.6021053 L37.239375,24.7560234 Z M30.0002344,24.9556725 C31.2680859,24.9596491 32.3969531,25.7580117 32.8198828,26.9515789 L32.6098828,26.9515789 C30.9650391,26.9505263 29.3412891,26.5792982 27.8603906,25.8638596 C28.4224219,25.2859649 29.1932812,24.9585965 30.0002344,24.9556725 Z M23.4509766,24.7859649 L25.3707422,26.0733333 C25.1298047,26.6700585 25.0038281,27.3067836 25.0007812,27.9494737 L25.0007812,28.1789474 L21.7911328,26.262924 L18.8514844,19.6566082 L21.0012891,18.5988304 L23.0810156,24.297076 C23.1489844,24.4946199 23.2789453,24.6652632 23.4509766,24.7859649 Z M12.8022656,2.00315789 C13.4651953,2.00315789 14.0021484,2.53906433 14.0021484,3.20070175 L14.0021484,3.99906433 L8.56265625,3.99906433 C8.09167969,4.01298246 7.67578125,3.69672515 7.5628125,3.2405848 L7.28285156,2.00315789 L12.8022656,2.00315789 Z M8.00273437,8.98865497 L8.00273437,5.93497076 C8.18671875,5.9748538 8.3746875,5.9948538 8.56265625,5.9948538 L14.0020312,5.9948538 L14.0020312,8.98865497 C14.0020312,10.6422222 12.6591797,11.9824561 11.0023828,11.9824561 C9.34558594,11.9824561 8.00273437,10.6422222 8.00273437,8.98865497 Z M5.00308594,13.9783626 L17.9015625,13.9783626 C18.7434375,13.9783626 19.4954297,14.5052632 19.7813672,15.2956725 L20.2913672,16.702807 L18.0016406,17.8305263 L18.0016406,17.7607018 L18.0016406,15.974269 L16.0018359,15.974269 L16.0018359,30.9432749 L6.00304687,30.9432749 L6.00304687,15.974269 L4.00324219,15.974269 L4.00324219,17.9701754 L2.0034375,17.9701754 L2.0034375,16.9722807 C2.0034375,15.3185965 3.34628906,13.9783626 5.00308594,13.9783626 Z" id="Shape" fill="#000000"></path>
                </g>
            </g>
        </g>
    </g>
</svg>