<?xml version="1.0" encoding="UTF-8"?>
<svg width="56px" height="50px" viewBox="0 0 56 50" version="1.1" xmlns="http://www.w3.org/2000/svg" xmlns:xlink="http://www.w3.org/1999/xlink">
    <!-- Generator: sketchtool 51.3 (57544) - http://www.bohemiancoding.com/sketch -->
    <title>F653D0B2-6699-40F9-BD99-C1A77FC67B45</title>
    <desc>Created with sketchtool.</desc>
    <defs></defs>
    <g id="Page-1" stroke="none" stroke-width="1" fill="none" fill-rule="evenodd">
        <g id="Artboard-(1)" transform="translate(-480.000000, -1859.000000)" fill-rule="nonzero">
            <g id="Group-11" transform="translate(450.000000, 1812.000000)">
                <g id="security-camera" transform="translate(30.000000, 47.000000)">
                    <g id="Group" transform="translate(1.093750, 1.086957)">
                        <path d="M4.375,36.956413 L4.37489062,28.2608696 C4.37489062,27.0652174 3.39051562,26.0869565 2.18739062,26.0869565 L0,26.0869565 L0,47.8256522 L2.1875,47.8256522 C3.390625,47.8256522 4.375,46.8473913 4.375,45.6517391 L4.375,41.3040217 L4.375,36.956413 Z" id="Shape" fill="#4AD194"></path>
                        <path d="M12.7191094,36.956413 L4.375,36.956413 L4.375,41.3040217 L12.7191094,41.3040217 C12.4772813,40.6241304 12.3457031,39.8925 12.3457031,39.1302174 C12.3457031,38.3679348 12.4772813,37.6363043 12.7191094,36.956413 Z" id="Shape" fill="#E1E6E9"></path>
                        <path d="M18.9080938,32.608587 C16.0507812,32.608587 13.6200313,34.4233696 12.7191094,36.9563043 C12.4772813,37.6363043 12.3457031,38.3679348 12.3457031,39.1302174 C12.3457031,39.8925 12.4772813,40.6241304 12.7191094,41.3040217 C13.6199219,43.8370652 16.0506719,45.6517391 18.9080938,45.6517391 C22.5325625,45.6517391 25.4704844,42.7321739 25.4704844,39.1301087 C25.4704844,37.5122826 24.8776719,36.0320652 23.8959219,34.8925 C22.9396562,33.7813043 21.6139219,32.9936957 20.1077188,32.7171739 C19.7188906,32.6458696 19.3179219,32.608587 18.9080938,32.608587 Z" id="Shape" fill="#FF9750"></path>
                        <path d="M23.2754375,27.2652174 L20.1078281,32.7177174 C21.6140313,32.993913 22.9397656,33.7815217 23.8960313,34.8927174 L27.0642969,29.4392391 L23.2754375,27.2652174 Z" id="Shape" fill="#E1E6E9"></path>
                        <path d="M23.2754375,27.2652174 L27.0642969,29.4392391 L37.9931562,35.7097826 C39.0350625,36.3076087 40.3797187,35.9495652 40.9811719,34.9140217 L42.0750312,33.0311957 L46.4495937,25.5013043 L34.4975312,28.683913 L11.7642656,15.6403261 L10.6705156,17.5229348 C10.0689531,18.5583696 10.4292344,19.8946739 11.4711406,20.4923913 L23.2754375,27.2652174 Z" id="Shape" fill="#4AD194"></path>
                        <path d="M11.7642656,15.6403261 L34.4975313,28.683913 L46.4495937,25.5013043 L52.4263906,23.9097826 L53.5200313,22.0272826 C54.1215938,20.9918478 53.7613125,19.6555435 52.7195156,19.0579348 L20.5140469,0.579347826 C18.430125,-0.616304348 15.740375,0.101195652 14.5380156,2.17065217 L9.06926562,11.5838043 C8.46770312,12.6193478 8.82798437,13.9556522 9.87,14.5533696 L11.7642656,15.6403261 Z" id="Shape" fill="#E1E6E9"></path>
                        <path d="M46.4495937,25.501087 L42.0750313,33.031087 L43.969625,34.1181522 C45.0116406,34.716087 46.3565156,34.3579348 46.9580781,33.3222826 L49.1449219,29.5581522 C49.7465937,28.5226087 49.3862031,27.186087 48.3441875,26.5882609 L46.4495937,25.501087 Z" id="Shape" fill="#FF9750"></path>
                    </g>
                    <path d="M55.88625,21.183913 C55.6590781,20.3409783 55.1170156,19.6375 54.3601406,19.2032609 L22.1545625,0.725 C21.3284531,0.251086957 20.3875,0.000543478261 19.4335313,0.000543478261 C17.4765937,0.000543478261 15.6570313,1.04032609 14.6845781,2.71402174 L9.21582813,12.1272826 C8.77876563,12.8795652 8.66326563,13.7580435 8.89054688,14.6009783 C9.11782813,15.4440217 9.65989063,16.1475 10.416875,16.5817391 L11.3639531,17.1252174 L10.8170781,18.0665217 C9.9124375,19.6236957 10.4512188,21.6218478 12.0180156,22.5207609 L22.8750156,28.7501087 L20.6177344,32.6355435 C20.4142969,32.6193478 20.2093281,32.6086957 20.0017344,32.6086957 C17.199,32.6086957 14.7445156,34.1141304 13.4103594,36.3531522 C13.397125,36.3728261 13.3834531,36.3921739 13.3714219,36.4129348 C13.358625,36.4348913 13.3480156,36.4575 13.3368594,36.4798913 C13.2481563,36.6356522 13.1637188,36.7941304 13.0858438,36.956413 L6.56239063,36.956413 L6.56239063,29.3478261 C6.56239063,27.5497826 5.09042188,26.0870652 3.28125,26.0870652 L1.09375,26.0870652 C0.489671875,26.0870652 0,26.5736957 0,27.1740217 L0,48.9127174 C0,49.5130435 0.489671875,49.9996739 1.09375,49.9996739 L3.28125,49.9996739 C5.09053125,49.9996739 6.56239063,48.5368478 6.56239063,46.738913 L6.56239063,43.4781522 L13.0860625,43.4781522 C14.3170781,46.046413 16.9538906,47.8258696 20.0019531,47.8258696 C22.8108125,47.8258696 25.2697813,46.3138043 26.6019688,44.0667391 C26.6119219,44.051413 26.6231875,44.0376087 26.632375,44.0216304 C26.6452813,43.9994565 26.656,43.9766304 26.6671563,43.9540217 C27.2967188,42.8494565 27.6580938,41.5748913 27.6580938,40.2173913 C27.6580938,38.6142391 27.1552969,37.126413 26.3000938,35.8984783 L28.5584688,32.0111957 L38.5401406,37.7382609 C39.0362656,38.0229348 39.6014063,38.1733696 40.1744219,38.1734783 C40.1745313,38.1734783 40.1745313,38.1734783 40.1746406,38.1734783 C41.3474688,38.1734783 42.4387031,37.5493478 43.0222188,36.5447826 L43.5692031,35.6031522 L44.5166094,36.1466304 C45.0128438,36.431413 45.5780938,36.5818478 46.151,36.5818478 C47.3241563,36.5818478 48.4155,35.9577174 48.999125,34.9529348 L51.1859688,31.1888043 C51.6230313,30.4365217 51.7386406,29.5579348 51.51125,28.7148913 C51.3212656,28.01 50.9104531,27.4033696 50.3385313,26.9693478 L53.8033125,26.0467391 C54.0836406,25.9721739 54.3224063,25.79 54.4674375,25.5402174 L55.5610781,23.6577174 C55.9979219,22.9053261 56.1135313,22.0268478 55.88625,21.183913 Z M4.37489063,46.738587 C4.37489063,47.3379348 3.88423438,47.8255435 3.28114063,47.8255435 L2.1875,47.8255435 L2.1875,28.2607609 L3.28125,28.2607609 C3.88434375,28.2607609 4.375,28.7483696 4.375,29.3477174 L4.375,46.738587 L4.37489063,46.738587 Z M20.0018437,34.7825 C23.0172031,34.7825 25.4704844,37.2205435 25.4704844,40.2170652 C25.4704844,40.8183696 25.3701875,41.3965217 25.1879687,41.9376087 L15.9117656,36.6152174 C16.9142969,35.4921739 18.375875,34.7825 20.0018437,34.7825 Z M6.5625,41.3040217 L6.5625,39.1302174 L12.4252187,39.1302174 C12.3738125,39.4854348 12.3458125,39.8480435 12.3458125,40.2170652 C12.3458125,40.5861957 12.3738125,40.9486957 12.4252187,41.3040217 L6.5625,41.3040217 Z M20.0018438,45.6517391 C16.9864844,45.6517391 14.5333125,43.2136957 14.5333125,40.2170652 C14.5333125,39.6157609 14.6336094,39.0376087 14.8158281,38.4965217 L24.0920313,43.8188043 C23.0893906,44.9420652 21.6279219,45.6517391 20.0018438,45.6517391 Z M24.7352656,34.2436957 C24.1641094,33.7956522 23.5277656,33.4270652 22.8424219,33.1538043 L24.7695,29.8368478 L26.6639844,30.923913 L24.7352656,34.2436957 Z M40.1744219,35.9992391 C40.1744219,35.9992391 40.1744219,35.9992391 40.1743125,35.9992391 C39.9847656,35.9992391 39.7977344,35.9494565 39.6336719,35.8553261 L13.111875,20.6380435 C12.5896094,20.3383696 12.4100156,19.6722826 12.7115625,19.1532609 L13.2584375,18.2119565 L35.0444062,30.7120652 C35.08225,30.7338043 35.1212969,30.7522826 35.161,30.7691304 C35.1727031,30.7741304 35.1845156,30.7783696 35.1963281,30.7829348 C35.2260781,30.7944565 35.256375,30.8046739 35.287,30.8134783 C35.2989219,30.8169565 35.3109531,30.8205435 35.3229844,30.8236957 C35.3645469,30.8341304 35.4064375,30.8429348 35.4487656,30.8484783 C35.4493125,30.848587 35.4499687,30.848587 35.450625,30.848587 C35.4924062,30.853913 35.5345156,30.8561957 35.576625,30.8567391 C35.5814375,30.8567391 35.58625,30.8577174 35.5911719,30.8577174 C35.5990469,30.8577174 35.6070312,30.8563043 35.6149062,30.8561957 C35.6464062,30.8555435 35.6777969,30.8534783 35.7092969,30.85 C35.721875,30.8486957 35.7344531,30.8476087 35.74725,30.8457609 C35.7897969,30.8395652 35.8322344,30.8318478 35.8742344,30.8206522 L45.2757812,28.3171739 L41.127625,35.4575 C41.1274062,35.4577174 41.1278437,35.4572826 41.127625,35.4575 C40.9335938,35.7917391 40.5683906,35.9992391 40.1744219,35.9992391 Z M49.2914844,30.1015217 L47.1046406,33.8656522 C46.9105,34.2 46.5449688,34.4076087 46.1507813,34.4076087 C45.9585,34.4076087 45.7766094,34.3591304 45.6101406,34.263587 L44.6627344,33.72 L47.9435469,28.0726087 L48.8909531,28.6161957 C49.1419688,28.7602174 49.322,28.9948913 49.398125,29.2770652 C49.4743594,29.5594565 49.4364062,29.8520652 49.2914844,30.1015217 Z M53.6665937,22.5706522 L52.7994687,24.0633696 L35.7457187,28.6043478 L11.5107344,14.6990217 C11.2598281,14.5551087 11.0796875,14.3204348 11.0036719,14.0383696 C10.9276563,13.7563043 10.9655,13.463587 11.1104219,13.2141304 L16.5791719,3.80097826 C17.1621406,2.7976087 18.256,2.17423913 19.43375,2.17423913 C20.0044687,2.17423913 20.5672031,2.32402174 21.0611406,2.6075 L53.2666094,21.0858696 C53.5175156,21.2297826 53.6974375,21.4644565 53.7735625,21.746413 C53.8493594,22.028587 53.8114062,22.3211957 53.6665937,22.5706522 Z" id="Shape" fill="#000000"></path>
                    <path d="M36.161125,24.4496739 L36.1356406,24.435 C35.6123906,24.1348913 34.9436719,24.3130435 34.6415781,24.8328261 C34.3394844,25.3527174 34.51875,26.0175 35.0418906,26.3177174 L35.067375,26.3323913 C35.2396406,26.4311957 35.4276562,26.4781522 35.6131563,26.4781522 C35.9911563,26.4781522 36.3587656,26.2832609 36.5614375,25.9345652 C36.8635313,25.4146739 36.6842656,24.7498913 36.161125,24.4496739 Z" id="Shape" fill="#000000"></path>
                    <path d="M33.4141719,22.8736957 L15.3190625,12.4913043 C14.7960312,12.191087 14.1269844,12.3691304 13.825,12.8891304 C13.5230156,13.4090217 13.7021719,14.0738043 14.2253125,14.373913 L32.3204219,24.756413 C32.4926875,24.8552174 32.6807031,24.9021739 32.8662031,24.9021739 C33.2442031,24.9021739 33.6118125,24.7072826 33.8144844,24.358587 C34.1165781,23.838587 33.9373125,23.173913 33.4141719,22.8736957 Z" id="Shape" fill="#000000"></path>
                    <path d="M50.1253594,21.166413 L47.1859062,19.4797826 C46.6626562,19.1796739 45.9939375,19.3578261 45.6918437,19.8776087 C45.38975,20.3975 45.5690156,21.0622826 46.0921562,21.3623913 L49.0316094,23.0490217 C49.203875,23.1478261 49.3918906,23.1947826 49.5773906,23.1947826 C49.9553906,23.1947826 50.323,22.9997826 50.5256719,22.6511957 C50.8277656,22.131413 50.6485,21.4666304 50.1253594,21.166413 Z" id="Shape" fill="#000000"></path>
                    <path d="M44.4644375,17.9184783 L44.4389531,17.9038043 C43.9157031,17.603587 43.2469844,17.7817391 42.9448906,18.3016304 C42.6427969,18.8215217 42.8220625,19.4863043 43.3452031,19.7865217 L43.3706875,19.8011957 C43.5429531,19.9 43.7309687,19.9469565 43.9164687,19.9469565 C44.2944687,19.9469565 44.6620781,19.7519565 44.86475,19.4033696 C45.1668437,18.8833696 44.9875781,18.218587 44.4644375,17.9184783 Z" id="Shape" fill="#000000"></path>
                </g>
            </g>
        </g>
    </g>
</svg>