<?xml version="1.0" encoding="UTF-8"?>
<svg width="15px" height="15px" viewBox="0 0 15 15" version="1.1" xmlns="http://www.w3.org/2000/svg" xmlns:xlink="http://www.w3.org/1999/xlink">
    <!-- Generator: sketchtool 51.2 (57519) - http://www.bohemiancoding.com/sketch -->
    <title>F16C403D-7F6D-4898-A0BF-C7AA13254BE3</title>
    <desc>Created with sketchtool.</desc>
    <defs></defs>
    <g id="Page-1" stroke="none" stroke-width="1" fill="none" fill-rule="evenodd">
        <g id="Artboard-(1)" transform="translate(-115.000000, -1161.000000)" fill="#B83160" fill-rule="nonzero">
            <path d="M116.169915,1162.14385 C115.389972,1164.25429 115,1166.36474 115,1168.47518 C115,1170.60352 115.396615,1172.73187 116.189846,1174.86021 L116.189866,1174.86021 C116.523886,1175.75643 117.511072,1176.22343 118.415809,1175.91321 C120.06366,1175.34819 121.854399,1174.53018 123.788026,1173.4592 C125.686962,1172.40743 127.51566,1171.22691 129.274119,1169.91763 L129.274107,1169.91761 C130.055831,1169.33557 130.217706,1168.23002 129.635666,1167.4483 C129.529934,1167.30629 129.403434,1167.18101 129.260416,1167.07665 C127.29117,1165.63972 125.46704,1164.45628 123.788026,1163.52632 C122.075475,1162.57778 120.287406,1161.76751 118.423818,1161.09551 L118.423818,1161.09551 C117.51211,1160.76675 116.505878,1161.23477 116.169915,1162.14385 Z" id="Path-4"></path>
        </g>
    </g>
</svg>