<?xml version="1.0" encoding="UTF-8"?>
<svg width="8px" height="16px" viewBox="0 0 8 16" version="1.1" xmlns="http://www.w3.org/2000/svg" xmlns:xlink="http://www.w3.org/1999/xlink">
    <!-- Generator: Sketch 51.3 (57544) - http://www.bohemiancoding.com/sketch -->
    <title>Path-12</title>
    <desc>Created with Sketch.</desc>
    <defs>
        <path d="M1.49074023,5.61264313 C1.06791286,5.75776407 1.28349992,6.42356535 1.38159231,7.09529891 C1.44744402,7.54624939 1.05758805,7.95462062 0.212024381,8.32041265 C0.769818641,7.35352614 -0.0589663465,7.20388652 0.00387656068,6.39260049 C0.0457718321,5.85174312 0.416743243,5.43064299 1.11679079,5.1293001 C1.11120905,5.05301173 1.21413169,5.08150442 1.26254956,5.05778201 C1.2867094,5.04594485 1.26254956,4.49678618 1.44151286,4.01704388 C1.61408852,3.55442476 1.95760085,3.24457001 2.25401559,2.9985048 C2.64805408,2.67148913 3.17806988,2.60819458 3.67300986,2.66511143 C3.69843456,2.66804577 3.72337203,2.67703509 3.74817661,2.6846271 C3.75730115,2.68737514 3.76531834,2.69417535 3.79348926,2.7105238 C3.67814795,2.72780379 3.58194162,2.7422426 3.48569099,2.75668141 C3.55084731,2.80963922 3.62304635,2.83856341 3.69520111,2.8674876 C3.61573786,2.87806054 3.54225429,2.8648793 3.46877072,2.85165149 C3.51700677,2.9600357 3.58154297,3.04853161 3.65055286,3.13297533 C3.67903383,3.16781478 3.72044863,3.19077713 3.7504356,3.22459189 C3.94306974,3.44187264 4.17322082,3.52226419 4.44961472,3.44382886 C4.48132915,3.43483954 4.51539115,3.43316278 4.5484787,3.4319052 C4.67037549,3.42715437 4.6971733,3.45351683 4.70501332,3.58188249 C4.71542238,3.75295905 4.72215506,3.75938665 4.88201172,3.78644777 C4.92891896,3.7944124 4.98127435,3.79995504 5.01874698,3.82622435 C5.05156875,3.84923329 5.08629517,3.8995828 5.08660522,3.93814839 C5.0874911,4.0531465 5.11065681,4.12850775 5.23680581,4.15142354 C5.34621173,4.1713584 5.38886675,4.27839188 5.34754057,4.39795451 C5.28207417,4.58747549 5.20960939,4.77424844 5.14347858,4.96348996 C5.12199605,5.0250179 5.10631601,5.0898528 5.09741294,5.15459455 C5.0933379,5.18449685 5.11189704,5.21784583 5.1201357,5.2496112 C5.14976832,5.23913143 5.18732954,5.23708205 5.20735036,5.2163088 C5.24894233,5.17331841 5.2915531,5.12534432 5.31556035,5.07061658 C5.43581831,4.79646557 5.52764236,4.53253941 5.64351522,4.25624587 C5.65778811,4.22220558 5.67686874,4.13387343 5.69123434,4.0998716 C5.69708384,4.08602657 5.72121515,4.11371155 5.72707693,4.0998716 C5.90781389,3.67314267 6.09397556,3.24865633 6.25950757,2.8155079 C6.38973163,2.47484522 6.48509635,2.11951085 6.59556532,1.7705575 C6.60132356,1.75234598 6.60309532,1.73264399 6.60597439,1.71350093 C6.65877274,1.35662953 6.61992697,1.27120768 6.32324647,1.08965134 C6.23430434,1.03524964 6.04452246,0.998315908 6.05704017,0.925514715 C6.06955784,0.852713522 6.36111775,0.984061742 6.54126104,0.938090448 C6.49980194,0.879869453 6.46866335,0.832314545 6.43380406,0.787973437 C6.35877016,0.692677314 6.27527617,0.603762214 6.20883533,0.502411107 C6.18314488,0.463240022 6.15198986,0.370981572 6.18854871,0.343723966 C6.22510763,0.31646636 6.29808755,0.362075223 6.33369985,0.39453925 C6.41108124,0.465103094 6.47118807,0.556486766 6.54772794,0.628261607 C6.58520056,0.663380512 6.64366849,0.673627403 6.69261328,0.695145886 C6.6958024,0.642327802 6.71183679,0.585876722 6.69947884,0.537483434 C6.67569301,0.444469574 6.63321516,0.356951776 6.6036711,0.265288643 C6.58967426,0.221972224 6.55206872,0.0328187025 6.60597439,0.00443354475 C6.65988006,-0.0239516129 6.75067007,0.0918709268 6.76333812,0.127455599 C6.82415364,0.297693784 6.90021873,0.552369422 6.9311359,0.604414288 C6.96205301,0.656459154 7.12240909,0.847158338 7.22212982,0.858383238 C7.32185056,0.869608132 7.5492129,0.832826889 7.7139862,0.816944202 C7.77183399,0.811401565 7.8376404,0.816944202 7.85616364,0.876896692 C7.87468694,0.936849182 7.81347027,0.99444837 7.75708414,1.02584113 C7.66721182,1.0758646 7.56294401,1.09719678 7.46501021,1.13143072 C7.36543753,1.16627017 7.28522127,1.22840361 7.25204513,1.33557682 C7.19756368,1.51154395 7.14002588,1.68765081 7.10237609,1.86799616 C7.005151,2.33371753 6.92267576,2.80283901 6.82589359,3.26870011 C6.75041438,3.63226161 6.67284328,3.99534676 6.59453227,4.35826291 C6.5911454,4.37395859 6.65356204,4.38225944 6.65017254,4.39795451 C6.58903811,4.681036 6.46168421,4.97141729 6.40036213,5.25445519 C6.3847707,5.32641634 6.42525531,6.07639588 6.51853828,6.18794731 C6.98278258,6.74314271 7.39041928,7.34305183 7.56670901,8.06657574 C7.64745674,8.39806279 7.5971389,8.82037464 7.60032806,9.16839643 C7.60869958,10.0942034 8.13016568,11.2538185 7.8897827,12.1360295 C7.80952219,12.430488 6.62019276,12.3450662 6.50821777,12.3686806 C6.44731368,12.3814893 6.42162323,12.4132081 6.41679518,12.4772046 C6.38109432,12.9567127 6.09420275,13.9051633 6.05704017,14.3845782 C6.03879106,14.6199308 6.36913497,14.867207 6.53661016,15.0003235 C6.66227196,15.1001842 6.78682638,15.2017681 6.91479146,15.2982752 C6.94265228,15.3192348 6.9825611,15.3244049 7.01773043,15.3324161 C7.17616971,15.368513 7.33518482,15.401536 7.49326969,15.4390769 C7.53215976,15.4483922 7.57065113,15.4662312 7.60506751,15.4877031 C7.68218316,15.5357238 7.68311335,15.5923612 7.60032806,15.6297623 C7.50961417,15.6707965 7.4135407,15.7040057 7.31671422,15.7241269 C6.64809789,15.862786 5.97004698,15.9088971 5.29102157,15.9124834 C4.49444015,15.9166288 3.69692857,15.9131821 2.90145451,15.8755015 C2.43942489,15.8536104 1.98031867,15.7591992 1.52037087,15.693852 C1.46686385,15.68626 1.41371117,15.6611551 1.36525365,15.6344666 C1.33566533,15.6181181 1.2960223,15.5830458 1.29619947,15.5567299 C1.29642094,15.5300414 1.33628544,15.4876099 1.36547512,15.4798782 C1.57564965,15.4240792 1.78524836,15.3574278 1.99918787,15.3273858 C3.1293466,15.1686521 4.26592794,15.173496 5.40286365,15.197157 C5.4422852,15.1979954 5.48170675,15.1972502 5.53813719,15.1972502 C5.51829354,15.1598024 5.50837169,15.1372127 5.49521643,15.1169052 C5.42049262,15.001814 5.34723053,14.8855117 5.26918463,14.7728424 C5.13772038,14.5831351 5.16491683,14.4603121 5.31268128,14.2713035 C5.39001842,14.172421 5.44348112,14.0708836 5.44773334,13.9495976 C5.46062288,13.5817806 5.50004443,12.6593199 5.50212623,12.29127 C5.50230341,12.2602964 4.60375748,12.1402886 4.58209776,12.038658 C4.51357511,11.717185 5.37200825,10.0699367 5.52883548,9.16839643 C5.63625645,8.55087391 5.31445304,8.26126675 5.12057864,7.9810608 C4.97852812,7.77584343 4.62048872,7.62284002 4.41183203,7.8819919 C4.20985459,8.13284819 4.02811402,8.43276251 3.94501867,8.77235396 C3.91454447,8.89699347 3.91100096,9.00947638 3.97000043,9.13141446 C4.02430475,9.24361796 4.05429171,9.37067943 4.08144387,9.49452716 C4.08937248,9.53048442 4.05088108,9.57775986 4.03360646,9.61986532 C3.99507077,9.59788108 3.95560491,9.57752697 3.91857522,9.5530276 C3.90759033,9.54580821 3.90595146,9.52424315 3.89571957,9.51408939 C3.85917711,9.47785266 3.8207743,9.44375842 3.78312449,9.4088724 C3.75194158,9.44832297 3.71593065,9.48465287 3.69063883,9.52787611 C3.62716568,9.63649323 3.57232984,9.75083927 3.50544606,9.85694121 C3.4877285,9.8850736 3.43900522,9.89159434 3.40450028,9.90803596 C3.39617302,9.86937722 3.37256438,9.82573474 3.38226474,9.7930378 C3.41938302,9.66774623 3.46877072,9.54659998 3.50991974,9.422566 C3.52063887,9.39019512 3.51811411,9.35298027 3.52165763,9.31804766 C3.48635539,9.31711613 3.44436478,9.30300335 3.41721262,9.31823396 C3.37030539,9.34464304 3.33331999,9.39005541 3.29088643,9.42587296 C3.21695992,9.4882393 3.1452924,9.55456461 3.06591774,9.60812796 C3.03841124,9.62666553 2.99083959,9.61236645 2.95248108,9.61306511 C2.9602768,9.5737543 2.95753058,9.52643228 2.97790578,9.49657653 C3.03779112,9.40849981 3.10675672,9.32726989 3.17240027,9.24352479 C3.19924236,9.20929083 3.22670458,9.17556924 3.25385674,9.14156817 C3.24898441,9.12945822 3.24406779,9.11734827 3.23915116,9.10519173 C3.13714233,9.12181965 3.03522208,9.13928592 2.93303606,9.15470283 C2.88236384,9.16234146 2.82996416,9.17547612 2.78066506,9.16839643 C2.7520512,9.16429765 2.72804391,9.12498684 2.70195481,9.10155871 C2.72268435,9.07738535 2.7397818,9.03788824 2.76467496,9.0313675 C3.12854931,8.93593163 3.32406256,8.64366226 3.49516988,8.33127172 C3.56200936,8.20924046 3.600235,8.06750733 3.63775192,7.93052493 C3.7279343,7.60150648 3.88012812,7.30863158 4.0732052,7.0346669 C4.21357256,6.83541134 4.33976586,6.62511712 4.47477366,6.42157653 C4.52801492,6.34127815 4.50183723,6.32092404 4.42157669,6.28855321 C4.22371586,6.20876713 4.07285085,6.24607516 3.94568308,6.42898222 C3.89709268,6.49889402 3.3398836,6.63745777 2.58952591,6.50014157 C1.99918787,6.39210914 2.25183476,6.0020336 1.49969448,5.60967843 C1.4973513,5.6114217 1.49434339,5.61239557 1.49074023,5.61264313 Z" id="path-1"></path>
        <path d="M1.49074023,5.61264313 C1.06791286,5.75776407 1.28349992,6.42356535 1.38159231,7.09529891 C1.44744402,7.54624939 1.05758805,7.95462062 0.212024381,8.32041265 C0.769818641,7.35352614 -0.0589663465,7.20388652 0.00387656068,6.39260049 C0.0457718321,5.85174312 0.416743243,5.43064299 1.11679079,5.1293001 C1.11120905,5.05301173 1.21413169,5.08150442 1.26254956,5.05778201 C1.2867094,5.04594485 1.26254956,4.49678618 1.44151286,4.01704388 C1.61408852,3.55442476 1.95760085,3.24457001 2.25401559,2.9985048 C2.64805408,2.67148913 3.17806988,2.60819458 3.67300986,2.66511143 C3.69843456,2.66804577 3.72337203,2.67703509 3.74817661,2.6846271 C3.75730115,2.68737514 3.76531834,2.69417535 3.79348926,2.7105238 C3.67814795,2.72780379 3.58194162,2.7422426 3.48569099,2.75668141 C3.55084731,2.80963922 3.62304635,2.83856341 3.69520111,2.8674876 C3.61573786,2.87806054 3.54225429,2.8648793 3.46877072,2.85165149 C3.51700677,2.9600357 3.58154297,3.04853161 3.65055286,3.13297533 C3.67903383,3.16781478 3.72044863,3.19077713 3.7504356,3.22459189 C3.94306974,3.44187264 4.17322082,3.52226419 4.44961472,3.44382886 C4.48132915,3.43483954 4.51539115,3.43316278 4.5484787,3.4319052 C4.67037549,3.42715437 4.6971733,3.45351683 4.70501332,3.58188249 C4.71542238,3.75295905 4.72215506,3.75938665 4.88201172,3.78644777 C4.92891896,3.7944124 4.98127435,3.79995504 5.01874698,3.82622435 C5.05156875,3.84923329 5.08629517,3.8995828 5.08660522,3.93814839 C5.0874911,4.0531465 5.11065681,4.12850775 5.23680581,4.15142354 C5.34621173,4.1713584 5.38886675,4.27839188 5.34754057,4.39795451 C5.28207417,4.58747549 5.20960939,4.77424844 5.14347858,4.96348996 C5.12199605,5.0250179 5.10631601,5.0898528 5.09741294,5.15459455 C5.0933379,5.18449685 5.11189704,5.21784583 5.1201357,5.2496112 C5.14976832,5.23913143 5.18732954,5.23708205 5.20735036,5.2163088 C5.24894233,5.17331841 5.2915531,5.12534432 5.31556035,5.07061658 C5.43581831,4.79646557 5.52764236,4.53253941 5.64351522,4.25624587 C5.65778811,4.22220558 5.67686874,4.13387343 5.69123434,4.0998716 C5.69708384,4.08602657 5.72121515,4.11371155 5.72707693,4.0998716 C5.90781389,3.67314267 6.09397556,3.24865633 6.25950757,2.8155079 C6.38973163,2.47484522 6.48509635,2.11951085 6.59556532,1.7705575 C6.60132356,1.75234598 6.60309532,1.73264399 6.60597439,1.71350093 C6.65877274,1.35662953 6.61992697,1.27120768 6.32324647,1.08965134 C6.23430434,1.03524964 6.04452246,0.998315908 6.05704017,0.925514715 C6.06955784,0.852713522 6.36111775,0.984061742 6.54126104,0.938090448 C6.49980194,0.879869453 6.46866335,0.832314545 6.43380406,0.787973437 C6.35877016,0.692677314 6.27527617,0.603762214 6.20883533,0.502411107 C6.18314488,0.463240022 6.15198986,0.370981572 6.18854871,0.343723966 C6.22510763,0.31646636 6.29808755,0.362075223 6.33369985,0.39453925 C6.41108124,0.465103094 6.47118807,0.556486766 6.54772794,0.628261607 C6.58520056,0.663380512 6.64366849,0.673627403 6.69261328,0.695145886 C6.6958024,0.642327802 6.71183679,0.585876722 6.69947884,0.537483434 C6.67569301,0.444469574 6.63321516,0.356951776 6.6036711,0.265288643 C6.58967426,0.221972224 6.55206872,0.0328187025 6.60597439,0.00443354475 C6.65988006,-0.0239516129 6.75067007,0.0918709268 6.76333812,0.127455599 C6.82415364,0.297693784 6.90021873,0.552369422 6.9311359,0.604414288 C6.96205301,0.656459154 7.12240909,0.847158338 7.22212982,0.858383238 C7.32185056,0.869608132 7.5492129,0.832826889 7.7139862,0.816944202 C7.77183399,0.811401565 7.8376404,0.816944202 7.85616364,0.876896692 C7.87468694,0.936849182 7.81347027,0.99444837 7.75708414,1.02584113 C7.66721182,1.0758646 7.56294401,1.09719678 7.46501021,1.13143072 C7.36543753,1.16627017 7.28522127,1.22840361 7.25204513,1.33557682 C7.19756368,1.51154395 7.14002588,1.68765081 7.10237609,1.86799616 C7.005151,2.33371753 6.92267576,2.80283901 6.82589359,3.26870011 C6.75041438,3.63226161 6.67284328,3.99534676 6.59453227,4.35826291 C6.5911454,4.37395859 6.65356204,4.38225944 6.65017254,4.39795451 C6.58903811,4.681036 6.46168421,4.97141729 6.40036213,5.25445519 C6.3847707,5.32641634 6.42525531,6.07639588 6.51853828,6.18794731 C6.98278258,6.74314271 7.39041928,7.34305183 7.56670901,8.06657574 C7.64745674,8.39806279 7.5971389,8.82037464 7.60032806,9.16839643 C7.60869958,10.0942034 8.13016568,11.2538185 7.8897827,12.1360295 C7.80952219,12.430488 6.62019276,12.3450662 6.50821777,12.3686806 C6.44731368,12.3814893 6.42162323,12.4132081 6.41679518,12.4772046 C6.38109432,12.9567127 6.09420275,13.9051633 6.05704017,14.3845782 C6.03879106,14.6199308 6.36913497,14.867207 6.53661016,15.0003235 C6.66227196,15.1001842 6.78682638,15.2017681 6.91479146,15.2982752 C6.94265228,15.3192348 6.9825611,15.3244049 7.01773043,15.3324161 C7.17616971,15.368513 7.33518482,15.401536 7.49326969,15.4390769 C7.53215976,15.4483922 7.57065113,15.4662312 7.60506751,15.4877031 C7.68218316,15.5357238 7.68311335,15.5923612 7.60032806,15.6297623 C7.50961417,15.6707965 7.4135407,15.7040057 7.31671422,15.7241269 C6.64809789,15.862786 5.97004698,15.9088971 5.29102157,15.9124834 C4.49444015,15.9166288 3.69692857,15.9131821 2.90145451,15.8755015 C2.43942489,15.8536104 1.98031867,15.7591992 1.52037087,15.693852 C1.46686385,15.68626 1.41371117,15.6611551 1.36525365,15.6344666 C1.33566533,15.6181181 1.2960223,15.5830458 1.29619947,15.5567299 C1.29642094,15.5300414 1.33628544,15.4876099 1.36547512,15.4798782 C1.57564965,15.4240792 1.78524836,15.3574278 1.99918787,15.3273858 C3.1293466,15.1686521 4.26592794,15.173496 5.40286365,15.197157 C5.4422852,15.1979954 5.48170675,15.1972502 5.53813719,15.1972502 C5.51829354,15.1598024 5.50837169,15.1372127 5.49521643,15.1169052 C5.42049262,15.001814 5.34723053,14.8855117 5.26918463,14.7728424 C5.13772038,14.5831351 5.16491683,14.4603121 5.31268128,14.2713035 C5.39001842,14.172421 5.44348112,14.0708836 5.44773334,13.9495976 C5.46062288,13.5817806 5.50004443,12.6593199 5.50212623,12.29127 C5.50230341,12.2602964 4.60375748,12.1402886 4.58209776,12.038658 C4.51357511,11.717185 5.37200825,10.0699367 5.52883548,9.16839643 C5.63625645,8.55087391 5.31445304,8.26126675 5.12057864,7.9810608 C4.97852812,7.77584343 4.62048872,7.62284002 4.41183203,7.8819919 C4.20985459,8.13284819 4.02811402,8.43276251 3.94501867,8.77235396 C3.91454447,8.89699347 3.91100096,9.00947638 3.97000043,9.13141446 C4.02430475,9.24361796 4.05429171,9.37067943 4.08144387,9.49452716 C4.08937248,9.53048442 4.05088108,9.57775986 4.03360646,9.61986532 C3.99507077,9.59788108 3.95560491,9.57752697 3.91857522,9.5530276 C3.90759033,9.54580821 3.90595146,9.52424315 3.89571957,9.51408939 C3.85917711,9.47785266 3.8207743,9.44375842 3.78312449,9.4088724 C3.75194158,9.44832297 3.71593065,9.48465287 3.69063883,9.52787611 C3.62716568,9.63649323 3.57232984,9.75083927 3.50544606,9.85694121 C3.4877285,9.8850736 3.43900522,9.89159434 3.40450028,9.90803596 C3.39617302,9.86937722 3.37256438,9.82573474 3.38226474,9.7930378 C3.41938302,9.66774623 3.46877072,9.54659998 3.50991974,9.422566 C3.52063887,9.39019512 3.51811411,9.35298027 3.52165763,9.31804766 C3.48635539,9.31711613 3.44436478,9.30300335 3.41721262,9.31823396 C3.37030539,9.34464304 3.33331999,9.39005541 3.29088643,9.42587296 C3.21695992,9.4882393 3.1452924,9.55456461 3.06591774,9.60812796 C3.03841124,9.62666553 2.99083959,9.61236645 2.95248108,9.61306511 C2.9602768,9.5737543 2.95753058,9.52643228 2.97790578,9.49657653 C3.03779112,9.40849981 3.10675672,9.32726989 3.17240027,9.24352479 C3.19924236,9.20929083 3.22670458,9.17556924 3.25385674,9.14156817 C3.24898441,9.12945822 3.24406779,9.11734827 3.23915116,9.10519173 C3.13714233,9.12181965 3.03522208,9.13928592 2.93303606,9.15470283 C2.88236384,9.16234146 2.82996416,9.17547612 2.78066506,9.16839643 C2.7520512,9.16429765 2.72804391,9.12498684 2.70195481,9.10155871 C2.72268435,9.07738535 2.7397818,9.03788824 2.76467496,9.0313675 C3.12854931,8.93593163 3.32406256,8.64366226 3.49516988,8.33127172 C3.56200936,8.20924046 3.600235,8.06750733 3.63775192,7.93052493 C3.7279343,7.60150648 3.88012812,7.30863158 4.0732052,7.0346669 C4.21357256,6.83541134 4.33976586,6.62511712 4.47477366,6.42157653 C4.52801492,6.34127815 4.50183723,6.32092404 4.42157669,6.28855321 C4.22371586,6.20876713 4.07285085,6.24607516 3.94568308,6.42898222 C3.89709268,6.49889402 3.3398836,6.63745777 2.58952591,6.50014157 C1.99918787,6.39210914 2.25183476,6.0020336 1.49969448,5.60967843 C1.4973513,5.6114217 1.49434339,5.61239557 1.49074023,5.61264313 Z" id="path-3"></path>
        <path d="M1.38159231,7.09529891 C1.44744402,7.54624939 1.05758805,7.95462062 0.212024381,8.32041265 C0.769818641,7.35352614 -0.0589663465,7.20388652 0.00387656068,6.39260049 C0.0457718321,5.85174312 0.416743243,5.43064299 1.11679079,5.1293001 C1.11120905,5.05301173 1.21413169,5.08150442 1.26254956,5.05778201 C1.2867094,5.04594485 1.26254956,4.49678618 1.44151286,4.01704388 C1.61408852,3.55442476 1.95760085,3.24457001 2.25401559,2.9985048 C2.64805408,2.67148913 3.17806988,2.60819458 3.67300986,2.66511143 C3.69843456,2.66804577 3.72337203,2.67703509 3.74817661,2.6846271 C3.75730115,2.68737514 3.76531834,2.69417535 3.79348926,2.7105238 C3.67814795,2.72780379 3.58194162,2.7422426 3.48569099,2.75668141 C3.55084731,2.80963922 3.62304635,2.83856341 3.69520111,2.8674876 C3.61573786,2.87806054 3.54225429,2.8648793 3.46877072,2.85165149 C3.51700677,2.9600357 3.58154297,3.04853161 3.65055286,3.13297533 C3.67903383,3.16781478 3.72044863,3.19077713 3.7504356,3.22459189 C3.94306974,3.44187264 4.17322082,3.52226419 4.44961472,3.44382886 C4.48132915,3.43483954 4.51539115,3.43316278 4.5484787,3.4319052 C4.67037549,3.42715437 4.6971733,3.45351683 4.70501332,3.58188249 C4.71542238,3.75295905 4.72215506,3.75938665 4.88201172,3.78644777 C4.92891896,3.7944124 4.98127435,3.79995504 5.01874698,3.82622435 C5.05156875,3.84923329 5.08629517,3.8995828 5.08660522,3.93814839 C5.0874911,4.0531465 5.11065681,4.12850775 5.23680581,4.15142354 C5.34621173,4.1713584 5.38886675,4.27839188 5.34754057,4.39795451 C5.28207417,4.58747549 5.20960939,4.77424844 5.14347858,4.96348996 C5.12199605,5.0250179 5.10631601,5.0898528 5.09741294,5.15459455 C5.0933379,5.18449685 5.11189704,5.21784583 5.1201357,5.2496112 C5.14976832,5.23913143 5.18732954,5.23708205 5.20735036,5.2163088 C5.24894233,5.17331841 5.2915531,5.12534432 5.31556035,5.07061658 C5.43581831,4.79646557 5.52764236,4.53253941 5.64351522,4.25624587 C5.65778811,4.22220558 5.67686874,4.13387343 5.69123434,4.0998716 C5.69708384,4.08602657 5.72121515,4.11371155 5.72707693,4.0998716 C5.90781389,3.67314267 6.09397556,3.24865633 6.25950757,2.8155079 C6.38973163,2.47484522 6.48509635,2.11951085 6.59556532,1.7705575 C6.60132356,1.75234598 6.60309532,1.73264399 6.60597439,1.71350093 C6.65877274,1.35662953 6.61992697,1.27120768 6.32324647,1.08965134 C6.23430434,1.03524964 6.04452246,0.998315908 6.05704017,0.925514715 C6.06955784,0.852713522 6.36111775,0.984061742 6.54126104,0.938090448 C6.49980194,0.879869453 6.46866335,0.832314545 6.43380406,0.787973437 C6.35877016,0.692677314 6.27527617,0.603762214 6.20883533,0.502411107 C6.18314488,0.463240022 6.15198986,0.370981572 6.18854871,0.343723966 C6.22510763,0.31646636 6.29808755,0.362075223 6.33369985,0.39453925 C6.41108124,0.465103094 6.47118807,0.556486766 6.54772794,0.628261607 C6.58520056,0.663380512 6.64366849,0.673627403 6.69261328,0.695145886 C6.6958024,0.642327802 6.71183679,0.585876722 6.69947884,0.537483434 C6.67569301,0.444469574 6.63321516,0.356951776 6.6036711,0.265288643 C6.58967426,0.221972224 6.55206872,0.0328187025 6.60597439,0.00443354475 C6.65988006,-0.0239516129 6.75067007,0.0918709268 6.76333812,0.127455599 C6.82415364,0.297693784 6.90021873,0.552369422 6.9311359,0.604414288 C6.96205301,0.656459154 7.12240909,0.847158338 7.22212982,0.858383238 C7.32185056,0.869608132 7.5492129,0.832826889 7.7139862,0.816944202 C7.77183399,0.811401565 7.8376404,0.816944202 7.85616364,0.876896692 C7.87468694,0.936849182 7.81347027,0.99444837 7.75708414,1.02584113 C7.66721182,1.0758646 7.56294401,1.09719678 7.46501021,1.13143072 C7.36543753,1.16627017 7.28522127,1.22840361 7.25204513,1.33557682 C7.19756368,1.51154395 7.14002588,1.68765081 7.10237609,1.86799616 C7.005151,2.33371753 6.92267576,2.80283901 6.82589359,3.26870011 C6.75041438,3.63226161 6.67284328,3.99534676 6.59453227,4.35826291 C6.5911454,4.37395859 6.65356204,4.38225944 6.65017254,4.39795451 C6.58903811,4.681036 6.46168421,4.97141729 6.40036213,5.25445519 C6.3847707,5.32641634 6.42525531,6.07639588 6.51853828,6.18794731 C6.98278258,6.74314271 7.39041928,7.34305183 7.56670901,8.06657574 C7.64745674,8.39806279 7.5971389,8.82037464 7.60032806,9.16839643 C7.60869958,10.0942034 8.13016568,11.2538185 7.8897827,12.1360295 C7.80952219,12.430488 6.62019276,12.3450662 6.50821777,12.3686806 C6.44731368,12.3814893 6.42162323,12.4132081 6.41679518,12.4772046 C6.38109432,12.9567127 6.09420275,13.9051633 6.05704017,14.3845782 C6.03879106,14.6199308 6.36913497,14.867207 6.53661016,15.0003235 C6.66227196,15.1001842 6.78682638,15.2017681 6.91479146,15.2982752 C6.94265228,15.3192348 6.9825611,15.3244049 7.01773043,15.3324161 C7.17616971,15.368513 7.33518482,15.401536 7.49326969,15.4390769 C7.53215976,15.4483922 7.57065113,15.4662312 7.60506751,15.4877031 C7.68218316,15.5357238 7.68311335,15.5923612 7.60032806,15.6297623 C7.50961417,15.6707965 7.4135407,15.7040057 7.31671422,15.7241269 C6.64809789,15.862786 5.97004698,15.9088971 5.29102157,15.9124834 C4.49444015,15.9166288 3.69692857,15.9131821 2.90145451,15.8755015 C2.43942489,15.8536104 1.98031867,15.7591992 1.52037087,15.693852 C1.46686385,15.68626 1.41371117,15.6611551 1.36525365,15.6344666 C1.33566533,15.6181181 1.2960223,15.5830458 1.29619947,15.5567299 C1.29642094,15.5300414 1.33628544,15.4876099 1.36547512,15.4798782 C1.57564965,15.4240792 1.78524836,15.3574278 1.99918787,15.3273858 C3.1293466,15.1686521 4.26592794,15.173496 5.40286365,15.197157 C5.4422852,15.1979954 5.48170675,15.1972502 5.53813719,15.1972502 C5.51829354,15.1598024 5.50837169,15.1372127 5.49521643,15.1169052 C5.42049262,15.001814 5.34723053,14.8855117 5.26918463,14.7728424 C5.13772038,14.5831351 5.16491683,14.4603121 5.31268128,14.2713035 C5.39001842,14.172421 5.44348112,14.0708836 5.44773334,13.9495976 C5.46062288,13.5817806 5.50004443,12.6593199 5.50212623,12.29127 C5.50230341,12.2602964 4.60375748,12.1402886 4.58209776,12.038658 C4.51357511,11.717185 5.37200825,10.0699367 5.52883548,9.16839643 C5.63625645,8.55087391 5.31445304,8.26126675 5.12057864,7.9810608 C4.97852812,7.77584343 4.62048872,7.62284002 4.41183203,7.8819919 C4.20985459,8.13284819 4.02811402,8.43276251 3.94501867,8.77235396 C3.91454447,8.89699347 3.91100096,9.00947638 3.97000043,9.13141446 C4.02430475,9.24361796 4.05429171,9.37067943 4.08144387,9.49452716 C4.08937248,9.53048442 4.05088108,9.57775986 4.03360646,9.61986532 C3.99507077,9.59788108 3.95560491,9.57752697 3.91857522,9.5530276 C3.90759033,9.54580821 3.90595146,9.52424315 3.89571957,9.51408939 C3.85917711,9.47785266 3.8207743,9.44375842 3.78312449,9.4088724 C3.75194158,9.44832297 3.71593065,9.48465287 3.69063883,9.52787611 C3.62716568,9.63649323 3.57232984,9.75083927 3.50544606,9.85694121 C3.4877285,9.8850736 3.43900522,9.89159434 3.40450028,9.90803596 C3.39617302,9.86937722 3.37256438,9.82573474 3.38226474,9.7930378 C3.41938302,9.66774623 3.46877072,9.54659998 3.50991974,9.422566 C3.52063887,9.39019512 3.51811411,9.35298027 3.52165763,9.31804766 C3.48635539,9.31711613 3.44436478,9.30300335 3.41721262,9.31823396 C3.37030539,9.34464304 3.33331999,9.39005541 3.29088643,9.42587296 C3.21695992,9.4882393 3.1452924,9.55456461 3.06591774,9.60812796 C3.03841124,9.62666553 2.99083959,9.61236645 2.95248108,9.61306511 C2.9602768,9.5737543 2.95753058,9.52643228 2.97790578,9.49657653 C3.03779112,9.40849981 3.10675672,9.32726989 3.17240027,9.24352479 C3.19924236,9.20929083 3.22670458,9.17556924 3.25385674,9.14156817 C3.13714233,9.12181965 3.03522208,9.13928592 2.93303606,9.15470283 C2.88236384,9.16234146 2.82996416,9.17547612 2.78066506,9.16839643 C2.7520512,9.16429765 2.72804391,9.12498684 2.70195481,9.10155871 C2.72268435,9.07738535 2.7397818,9.03788824 2.76467496,9.0313675 C3.12854931,8.93593163 3.32406256,8.64366226 3.49516988,8.33127172 C3.56200936,8.20924046 3.600235,8.06750733 3.63775192,7.93052493 C3.7279343,7.60150648 3.88012812,7.30863158 4.0732052,7.0346669 C4.21357256,6.83541134 4.33976586,6.62511712 4.47477366,6.42157653 C4.52801492,6.34127815 4.50183723,6.32092404 4.42157669,6.28855321 C4.22371586,6.20876713 4.07285085,6.24607516 3.94568308,6.42898222 C3.89709268,6.49889402 3.33849453,6.66505219 2.58952591,6.50014157 C2.10111045,6.39260049 2.05132603,5.97886557 1.49969448,5.60967843 C1.06791286,5.75776407 1.28349992,6.42356535 1.38159231,7.09529891 Z" id="path-5"></path>
    </defs>
    <g id="Page-1" stroke="none" stroke-width="1" fill="none" fill-rule="evenodd">
        <g id="Path-12">
            <g id="Mask" fill="#F6C19E" fill-rule="nonzero">
                <path d="M1.49074023,5.61264313 C1.06791286,5.75776407 1.28349992,6.42356535 1.38159231,7.09529891 C1.44744402,7.54624939 1.05758805,7.95462062 0.212024381,8.32041265 C0.769818641,7.35352614 -0.0589663465,7.20388652 0.00387656068,6.39260049 C0.0457718321,5.85174312 0.416743243,5.43064299 1.11679079,5.1293001 C1.11120905,5.05301173 1.21413169,5.08150442 1.26254956,5.05778201 C1.2867094,5.04594485 1.26254956,4.49678618 1.44151286,4.01704388 C1.61408852,3.55442476 1.95760085,3.24457001 2.25401559,2.9985048 C2.64805408,2.67148913 3.17806988,2.60819458 3.67300986,2.66511143 C3.69843456,2.66804577 3.72337203,2.67703509 3.74817661,2.6846271 C3.75730115,2.68737514 3.76531834,2.69417535 3.79348926,2.7105238 C3.67814795,2.72780379 3.58194162,2.7422426 3.48569099,2.75668141 C3.55084731,2.80963922 3.62304635,2.83856341 3.69520111,2.8674876 C3.61573786,2.87806054 3.54225429,2.8648793 3.46877072,2.85165149 C3.51700677,2.9600357 3.58154297,3.04853161 3.65055286,3.13297533 C3.67903383,3.16781478 3.72044863,3.19077713 3.7504356,3.22459189 C3.94306974,3.44187264 4.17322082,3.52226419 4.44961472,3.44382886 C4.48132915,3.43483954 4.51539115,3.43316278 4.5484787,3.4319052 C4.67037549,3.42715437 4.6971733,3.45351683 4.70501332,3.58188249 C4.71542238,3.75295905 4.72215506,3.75938665 4.88201172,3.78644777 C4.92891896,3.7944124 4.98127435,3.79995504 5.01874698,3.82622435 C5.05156875,3.84923329 5.08629517,3.8995828 5.08660522,3.93814839 C5.0874911,4.0531465 5.11065681,4.12850775 5.23680581,4.15142354 C5.34621173,4.1713584 5.38886675,4.27839188 5.34754057,4.39795451 C5.28207417,4.58747549 5.20960939,4.77424844 5.14347858,4.96348996 C5.12199605,5.0250179 5.10631601,5.0898528 5.09741294,5.15459455 C5.0933379,5.18449685 5.11189704,5.21784583 5.1201357,5.2496112 C5.14976832,5.23913143 5.18732954,5.23708205 5.20735036,5.2163088 C5.24894233,5.17331841 5.2915531,5.12534432 5.31556035,5.07061658 C5.43581831,4.79646557 5.52764236,4.53253941 5.64351522,4.25624587 C5.65778811,4.22220558 5.67686874,4.13387343 5.69123434,4.0998716 C5.69708384,4.08602657 5.72121515,4.11371155 5.72707693,4.0998716 C5.90781389,3.67314267 6.09397556,3.24865633 6.25950757,2.8155079 C6.38973163,2.47484522 6.48509635,2.11951085 6.59556532,1.7705575 C6.60132356,1.75234598 6.60309532,1.73264399 6.60597439,1.71350093 C6.65877274,1.35662953 6.61992697,1.27120768 6.32324647,1.08965134 C6.23430434,1.03524964 6.04452246,0.998315908 6.05704017,0.925514715 C6.06955784,0.852713522 6.36111775,0.984061742 6.54126104,0.938090448 C6.49980194,0.879869453 6.46866335,0.832314545 6.43380406,0.787973437 C6.35877016,0.692677314 6.27527617,0.603762214 6.20883533,0.502411107 C6.18314488,0.463240022 6.15198986,0.370981572 6.18854871,0.343723966 C6.22510763,0.31646636 6.29808755,0.362075223 6.33369985,0.39453925 C6.41108124,0.465103094 6.47118807,0.556486766 6.54772794,0.628261607 C6.58520056,0.663380512 6.64366849,0.673627403 6.69261328,0.695145886 C6.6958024,0.642327802 6.71183679,0.585876722 6.69947884,0.537483434 C6.67569301,0.444469574 6.63321516,0.356951776 6.6036711,0.265288643 C6.58967426,0.221972224 6.55206872,0.0328187025 6.60597439,0.00443354475 C6.65988006,-0.0239516129 6.75067007,0.0918709268 6.76333812,0.127455599 C6.82415364,0.297693784 6.90021873,0.552369422 6.9311359,0.604414288 C6.96205301,0.656459154 7.12240909,0.847158338 7.22212982,0.858383238 C7.32185056,0.869608132 7.5492129,0.832826889 7.7139862,0.816944202 C7.77183399,0.811401565 7.8376404,0.816944202 7.85616364,0.876896692 C7.87468694,0.936849182 7.81347027,0.99444837 7.75708414,1.02584113 C7.66721182,1.0758646 7.56294401,1.09719678 7.46501021,1.13143072 C7.36543753,1.16627017 7.28522127,1.22840361 7.25204513,1.33557682 C7.19756368,1.51154395 7.14002588,1.68765081 7.10237609,1.86799616 C7.005151,2.33371753 6.92267576,2.80283901 6.82589359,3.26870011 C6.75041438,3.63226161 6.67284328,3.99534676 6.59453227,4.35826291 C6.5911454,4.37395859 6.65356204,4.38225944 6.65017254,4.39795451 C6.58903811,4.681036 6.46168421,4.97141729 6.40036213,5.25445519 C6.3847707,5.32641634 6.42525531,6.07639588 6.51853828,6.18794731 C6.98278258,6.74314271 7.39041928,7.34305183 7.56670901,8.06657574 C7.64745674,8.39806279 7.5971389,8.82037464 7.60032806,9.16839643 C7.60869958,10.0942034 8.13016568,11.2538185 7.8897827,12.1360295 C7.80952219,12.430488 6.62019276,12.3450662 6.50821777,12.3686806 C6.44731368,12.3814893 6.42162323,12.4132081 6.41679518,12.4772046 C6.38109432,12.9567127 6.09420275,13.9051633 6.05704017,14.3845782 C6.03879106,14.6199308 6.36913497,14.867207 6.53661016,15.0003235 C6.66227196,15.1001842 6.78682638,15.2017681 6.91479146,15.2982752 C6.94265228,15.3192348 6.9825611,15.3244049 7.01773043,15.3324161 C7.17616971,15.368513 7.33518482,15.401536 7.49326969,15.4390769 C7.53215976,15.4483922 7.57065113,15.4662312 7.60506751,15.4877031 C7.68218316,15.5357238 7.68311335,15.5923612 7.60032806,15.6297623 C7.50961417,15.6707965 7.4135407,15.7040057 7.31671422,15.7241269 C6.64809789,15.862786 5.97004698,15.9088971 5.29102157,15.9124834 C4.49444015,15.9166288 3.69692857,15.9131821 2.90145451,15.8755015 C2.43942489,15.8536104 1.98031867,15.7591992 1.52037087,15.693852 C1.46686385,15.68626 1.41371117,15.6611551 1.36525365,15.6344666 C1.33566533,15.6181181 1.2960223,15.5830458 1.29619947,15.5567299 C1.29642094,15.5300414 1.33628544,15.4876099 1.36547512,15.4798782 C1.57564965,15.4240792 1.78524836,15.3574278 1.99918787,15.3273858 C3.1293466,15.1686521 4.26592794,15.173496 5.40286365,15.197157 C5.4422852,15.1979954 5.48170675,15.1972502 5.53813719,15.1972502 C5.51829354,15.1598024 5.50837169,15.1372127 5.49521643,15.1169052 C5.42049262,15.001814 5.34723053,14.8855117 5.26918463,14.7728424 C5.13772038,14.5831351 5.16491683,14.4603121 5.31268128,14.2713035 C5.39001842,14.172421 5.44348112,14.0708836 5.44773334,13.9495976 C5.46062288,13.5817806 5.50004443,12.6593199 5.50212623,12.29127 C5.50230341,12.2602964 4.60375748,12.1402886 4.58209776,12.038658 C4.51357511,11.717185 5.37200825,10.0699367 5.52883548,9.16839643 C5.63625645,8.55087391 5.31445304,8.26126675 5.12057864,7.9810608 C4.97852812,7.77584343 4.62048872,7.62284002 4.41183203,7.8819919 C4.20985459,8.13284819 4.02811402,8.43276251 3.94501867,8.77235396 C3.91454447,8.89699347 3.91100096,9.00947638 3.97000043,9.13141446 C4.02430475,9.24361796 4.05429171,9.37067943 4.08144387,9.49452716 C4.08937248,9.53048442 4.05088108,9.57775986 4.03360646,9.61986532 C3.99507077,9.59788108 3.95560491,9.57752697 3.91857522,9.5530276 C3.90759033,9.54580821 3.90595146,9.52424315 3.89571957,9.51408939 C3.85917711,9.47785266 3.8207743,9.44375842 3.78312449,9.4088724 C3.75194158,9.44832297 3.71593065,9.48465287 3.69063883,9.52787611 C3.62716568,9.63649323 3.57232984,9.75083927 3.50544606,9.85694121 C3.4877285,9.8850736 3.43900522,9.89159434 3.40450028,9.90803596 C3.39617302,9.86937722 3.37256438,9.82573474 3.38226474,9.7930378 C3.41938302,9.66774623 3.46877072,9.54659998 3.50991974,9.422566 C3.52063887,9.39019512 3.51811411,9.35298027 3.52165763,9.31804766 C3.48635539,9.31711613 3.44436478,9.30300335 3.41721262,9.31823396 C3.37030539,9.34464304 3.33331999,9.39005541 3.29088643,9.42587296 C3.21695992,9.4882393 3.1452924,9.55456461 3.06591774,9.60812796 C3.03841124,9.62666553 2.99083959,9.61236645 2.95248108,9.61306511 C2.9602768,9.5737543 2.95753058,9.52643228 2.97790578,9.49657653 C3.03779112,9.40849981 3.10675672,9.32726989 3.17240027,9.24352479 C3.19924236,9.20929083 3.22670458,9.17556924 3.25385674,9.14156817 C3.24898441,9.12945822 3.24406779,9.11734827 3.23915116,9.10519173 C3.13714233,9.12181965 3.03522208,9.13928592 2.93303606,9.15470283 C2.88236384,9.16234146 2.82996416,9.17547612 2.78066506,9.16839643 C2.7520512,9.16429765 2.72804391,9.12498684 2.70195481,9.10155871 C2.72268435,9.07738535 2.7397818,9.03788824 2.76467496,9.0313675 C3.12854931,8.93593163 3.32406256,8.64366226 3.49516988,8.33127172 C3.56200936,8.20924046 3.600235,8.06750733 3.63775192,7.93052493 C3.7279343,7.60150648 3.88012812,7.30863158 4.0732052,7.0346669 C4.21357256,6.83541134 4.33976586,6.62511712 4.47477366,6.42157653 C4.52801492,6.34127815 4.50183723,6.32092404 4.42157669,6.28855321 C4.22371586,6.20876713 4.07285085,6.24607516 3.94568308,6.42898222 C3.89709268,6.49889402 3.3398836,6.63745777 2.58952591,6.50014157 C1.99918787,6.39210914 2.25183476,6.0020336 1.49969448,5.60967843 C1.4973513,5.6114217 1.49434339,5.61239557 1.49074023,5.61264313 Z" id="path-3"></path>
            </g>
            <g id="Clipped">
                <mask id="mask-2" fill="white">
                    <use xlink:href="#path-1"></use>
                </mask>
                <g id="path-3"></g>
                <path d="M6.66508578,12.3688673 C6.28285364,12.377315 5.92517925,12.3576106 5.5920626,12.3097539 C5.25894595,12.2618972 4.92691437,12.1825161 4.59596786,12.0716107 L3.95679089,11.7367041 L4.56234879,8.10822236 L3.70847139,7.14267549 L4.43800967,6.37208486 C5.15285705,6.35994507 5.40927742,5.98660256 5.20727081,5.25205741 C5.4569339,4.37850848 5.59536209,3.98453981 5.6225553,4.0701514 L6.78658288,4.40905939 L6.63146673,5.68684693 L7.74477381,7.78217341 L8.08460361,10.8855936 L8.25276921,12.1997143 L7.21384987,13.3738531 L6.66508578,12.3688673 Z" id="Shape" fill="#A80E2B" fill-rule="nonzero" mask="url(#mask-2)"></path>
            </g>
            <g id="Path-11-Clipped">
                <mask id="mask-4" fill="white">
                    <use xlink:href="#path-3"></use>
                </mask>
                <g id="path-3"></g>
                <path d="M3.47969449,2.92238675 L3.47969449,3.07352882 C3.77555985,3.64058282 3.92349253,4.0599214 3.92349253,4.33154455 C3.92349253,4.73897928 3.59605757,4.77393897 3.69849249,5.15052214 C3.76678243,5.40157759 3.96833831,5.59384447 4.30316013,5.72732281 C4.45209532,5.91673708 4.40844695,6.09075796 4.17221501,6.24938539 C4.0368779,6.34026299 3.96359487,6.43530494 3.95236592,6.53451125 C3.94678507,6.58381723 3.41934999,6.6015243 2.37006065,6.58763234 L1.41190865,5.91191379 L1.47078409,7.50318533 L0.232283128,8.59889541 L-0.165744963,6.37476752 L0.313151644,5.33873213 L1.15699703,4.95511464 L1.51803513,3.39507522 L3.04463466,2.45920264 L3.92349253,2.68424385 L3.83231604,3.07352882 L3.47969449,2.92238675 Z" id="Path-11" fill="#242424" fill-rule="nonzero" mask="url(#mask-4)"></path>
            </g>
            <g id="Path-3-Clipped">
                <mask id="mask-6" fill="white">
                    <use xlink:href="#path-5"></use>
                </mask>
                <g id="path-3"></g>
                <path d="M5.53576249,15.2036187 C6.01748098,15.6319877 6.45368123,15.7623368 6.84436335,15.5946659 C7.01805276,15.5130915 6.97214016,15.3961979 6.91014442,15.3005976 C6.86881393,15.2368641 7.02424536,15.2045377 7.37643871,15.2036187 L7.88247144,15.6845131 L7.07068519,15.9455604 L6.84436335,16.0183391 L1.0229427,16.1403285 L1.1860242,14.9447934 L5.53576249,15.2036187 Z" id="Path-3" fill="#C3C3C3" fill-rule="nonzero" mask="url(#mask-6)"></path>
            </g>
        </g>
    </g>
</svg>