<?xml version="1.0" encoding="UTF-8"?>
<svg width="155px" height="24px" viewBox="0 0 155 24" version="1.1" xmlns="http://www.w3.org/2000/svg" xmlns:xlink="http://www.w3.org/1999/xlink">
    <!-- Generator: sketchtool 51.2 (57519) - http://www.bohemiancoding.com/sketch -->
    <title>E1BF7030-F93B-4755-A475-A67AA3615EFE</title>
    <desc>Created with sketchtool.</desc>
    <defs></defs>
    <g id="Page-1" stroke="none" stroke-width="1" fill="none" fill-rule="evenodd">
        <g id="Artboard-(1)" transform="translate(-80.000000, -33.000000)" fill="#FFFFFF" fill-rule="nonzero">
            <g id="Kidztopiaa" transform="translate(80.000000, 33.000000)">
                <g id="Group-Copy-3">
                    <path d="M6.61717669,7.55156501 C7.33746056,6.75593033 7.97239229,6.05262853 8.60865416,5.35153688 C9.53178812,4.33391028 10.4225547,3.27650196 11.3906926,2.31461891 C12.1007785,1.60959817 12.9618382,1.15284493 13.9155659,0.930116327 C14.9114155,0.697810645 15.6970992,1.04847926 16.2925693,1.92613309 C16.8800585,2.79224529 16.8126635,3.72048576 16.4011994,4.64037696 C15.8662517,5.83603911 15.0282482,6.76550742 14.1503399,7.64463462 C13.0833265,8.71309342 11.9912617,9.75085643 10.9016355,10.7908296 C10.6573287,11.0243631 10.6267349,11.2124668 10.7910102,11.5442269 C11.5884436,13.1563694 12.6749661,14.5239279 13.7293429,15.921691 C14.7209803,17.2369439 15.7159431,18.5502323 16.665237,19.9028113 C16.9232889,20.270424 17.0882292,20.7600831 17.1775719,21.2219932 C17.3567007,22.1465502 16.9900188,22.8449406 16.2005663,23.2430036 C15.0692617,23.8136996 13.881425,23.8095249 12.6853857,23.622649 C10.8377877,23.3343542 9.83550892,21.9356088 9.16288925,20.1874226 C8.46277947,18.3677766 7.83649384,16.5135057 7.17252022,14.6766701 C7.07963042,14.4200533 6.95614685,14.1769427 6.82335211,13.873914 C6.53914039,14.183573 6.52140486,14.530067 6.49701852,14.8456197 C6.38328948,16.3131236 6.31833312,17.785539 6.18620349,19.2505873 C6.08710625,20.3480229 5.97337721,21.4523344 5.75478687,22.5261956 C5.52599866,23.6496613 4.9331888,24.0641771 3.9080756,23.9703708 C2.68099913,23.8581471 1.58649569,23.427915 1.08014652,22.0559362 C0.830297347,21.3794012 0.638532009,20.6358266 0.599735556,19.910915 C0.419054919,16.5105589 0.277392431,13.1072561 0.166767109,9.70321658 C0.0783111906,6.98749929 0.0561417874,4.26932635 0.00116166746,1.55238123 C-0.0181257133,0.593444983 0.197360886,0.315955107 1.05332155,0.148970049 C1.99995506,-0.0354502136 2.94370656,-0.0573056108 3.88967497,0.132271543 C5.0899265,0.373172046 5.74813606,1.292081 6.18686855,2.44697913 C6.70563259,3.81281867 6.73977347,5.25502934 6.65619484,6.70829047 C6.64244979,6.94747199 6.63402542,7.18689913 6.61717669,7.55156501" id="Fill-1"></path>
                    <path d="M147.834694,14.9672174 C147.834694,14.6996013 147.820109,14.4307688 147.838177,14.1646124 C147.866043,13.7541866 147.674686,13.5490953 147.342916,13.5364444 C146.832415,13.5172247 146.306675,13.4641881 145.812284,13.5705046 C144.863559,13.7743794 144.031737,14.2624139 143.665787,15.3445561 C143.19186,16.7454047 143.980795,17.7886209 145.095624,17.7321782 C145.461138,17.7136884 145.834925,17.65238 146.183894,17.5334125 C146.807162,17.3210226 147.341827,16.8981892 147.66489,16.2773198 C147.833388,15.9535043 147.785495,15.4888255 147.834259,15.0874014 C147.839266,15.0479888 147.834912,15.0073598 147.834694,14.9672174 M153.805701,9.98396234 C153.772393,12.0458227 153.700989,14.108413 153.717534,16.1700301 C153.731684,17.9112377 154.099157,19.5814055 154.77968,21.1603405 C155.250342,22.2527007 154.969512,22.9151722 153.912155,23.2550447 C152.039739,23.8571809 150.212822,23.3345996 149.118021,21.5225954 C148.980436,21.2951217 148.860049,21.4055741 148.700042,21.5092145 C147.895867,22.0293629 147.128266,22.6806432 146.263571,23.0127305 C143.360793,24.1279597 140.119712,23.0633342 138.702937,19.6249539 C138.125168,18.2233754 138.111671,16.7510003 138.418189,15.2640279 C139.028613,12.3051671 140.841162,10.6011824 143.245849,9.54750481 C144.638024,8.93709683 146.099428,8.650261 147.594574,8.60841559 C147.861036,8.60087366 147.984035,8.5064782 147.930699,8.20869445 C147.826857,7.62383164 147.770909,7.0180461 147.589349,6.46432404 C147.415626,5.93493078 146.957373,5.72910965 146.466901,5.66999081 C145.653148,5.57218929 144.915806,5.88067769 144.170192,6.18527345 C143.490105,6.46335089 142.80414,6.77646174 142.095971,6.9041876 C140.770628,7.14333909 140.142571,6.1288308 140.017177,4.91896276 C139.838883,3.20086739 140.648935,2.09999207 141.907009,1.38764667 C143.9501,0.230328692 146.137089,-0.273519435 148.414205,0.146637839 C150.557872,0.542466379 152.159473,1.85767786 153.053121,4.11197856 C153.613257,5.52523483 153.765427,7.04651071 153.821811,8.5775181 C153.839227,9.04560297 153.824641,9.51539086 153.824641,9.98444892 C153.81811,9.98420561 153.812015,9.98420561 153.805701,9.98396234" id="Fill-4"></path>
                    <path d="M129.732768,14.9414886 C129.732768,14.6871637 129.734726,14.4328389 129.732332,14.178514 C129.727978,13.7158618 129.640907,13.5625367 129.21774,13.5335754 C128.709025,13.498773 128.180937,13.46032 127.687678,13.5703247 C126.755361,13.778652 125.9321,14.2563934 125.567271,15.3245578 C125.076841,16.7619192 125.89183,17.7994187 127.010044,17.729814 C127.375744,17.7069369 127.750151,17.6487707 128.097566,17.5253806 C128.705107,17.3099954 129.236243,16.899425 129.547958,16.2866116 C129.720142,15.9488098 129.678783,15.474719 129.732114,15.0619583 C129.737339,15.0225318 129.732985,14.9816451 129.732768,14.9414886 M135.699989,10.0236488 C135.665596,12.0463225 135.594415,14.0689961 135.607911,16.091183 C135.619883,17.8600186 135.980359,19.5587626 136.674318,21.1628346 C137.145374,22.2519292 136.863699,22.9124437 135.802298,23.2548696 C133.950724,23.8518638 132.11896,23.3502718 131.00967,21.5196195 C130.871009,21.2910922 130.74519,21.4125354 130.588027,21.5142654 C129.804384,22.0209681 129.05557,22.6444899 128.215766,22.9830219 C125.309975,24.1543765 122.008445,23.069906 120.593752,19.6176589 C120.018645,18.2143697 120.006673,16.7409892 120.314906,15.2544664 C120.931807,12.2797172 122.756388,10.5773225 125.178279,9.52838459 C126.56228,8.9289567 128.010277,8.64518368 129.492668,8.60308015 C129.766943,8.59553559 129.871646,8.48188037 129.822233,8.19543027 C129.72406,7.62301676 129.671382,7.03015997 129.496369,6.48743797 C129.319831,5.94009193 128.859006,5.72227303 128.353556,5.66264662 C127.539439,5.56651424 126.802597,5.87657155 126.057701,6.18273488 C125.38921,6.45725971 124.715277,6.76731701 124.019359,6.89581803 C122.651467,7.14868265 122.022376,6.09950131 121.908966,4.8653564 C121.749843,3.13911117 122.594653,2.09577079 123.836509,1.35323952 C125.240753,0.513359029 126.771469,0.159981319 128.346591,0.0283164837 C130.009219,-0.110649544 131.566927,0.25173297 132.944179,1.34058412 C134.196701,2.33135592 134.951175,3.69886925 135.324058,5.35940377 C135.668861,6.89533128 135.740913,8.45340571 135.699989,10.0236488" id="Fill-6"></path>
                    <path d="M83.5965747,11.747966 C83.6602537,12.5496179 83.6931912,13.3566435 83.7961756,14.1521889 C83.902673,14.9750912 84.0873423,15.7826053 84.4948877,16.502431 C85.0100286,17.4122889 85.9816818,17.7239609 86.7504407,17.1997851 C87.1981698,16.8944637 87.4662803,16.4142542 87.6733467,15.8910554 C88.0876993,14.8441694 88.2185705,13.728647 88.3026707,12.6040872 C88.4260759,10.9580384 88.3834769,9.33030889 87.8145382,7.77121562 C87.3621982,6.53136642 86.5374455,6.03869975 85.5133121,6.40166587 C84.9492039,6.60171247 84.5919432,7.07190745 84.3350315,7.6361414 C83.74655,8.92826165 83.622705,10.3229698 83.5965747,11.747966 M86.6184714,0.489910514 C87.5380836,0.482338541 88.9087188,0.730992305 90.1609987,1.52360669 C91.5874079,2.42613679 92.4909905,3.82353184 93.1060413,5.47666413 C93.6997928,7.07361722 93.8822662,8.76241105 94.0030368,10.4685471 C94.1176589,12.0877276 94.0640808,13.6968936 93.7937744,15.2882288 C93.3451672,17.9306025 92.4508067,20.3301845 90.5586628,22.1284056 C89.3948748,23.2344018 88.0334621,23.8047422 86.5058255,23.942259 C85.0715117,24.0712268 83.6892387,23.9095285 82.3638376,23.2561407 C80.7828426,22.4769605 79.6651667,21.1853287 78.9135353,19.4699109 C78.3630415,18.2134522 78.0712161,16.8824951 77.911799,15.5034193 C77.695071,13.6285016 77.6711367,11.747966 77.7978356,9.86865159 C77.9568137,7.50863917 78.5132362,5.30006619 79.9576509,3.46887049 C81.5906871,1.39952407 83.6661825,0.465729056 86.6184714,0.489910514" id="Fill-8"></path>
                    <path d="M36.3292607,11.7415642 C36.3506724,10.315272 36.2257337,9.34241112 35.7195773,8.47343616 C35.1297606,7.46024315 34.2293629,7.10849772 33.2000532,7.07916523 C32.8044875,7.06792109 32.6808732,7.25369351 32.6824184,7.71959121 C32.6905858,10.3680705 32.7007398,13.0165498 32.7102316,15.6652734 C32.7122183,16.174681 32.8117719,16.2973886 33.2779744,16.3140103 C34.364235,16.3528759 35.0743549,15.6950948 35.5836016,14.7227228 C36.1314778,13.6762863 36.3301436,12.5237639 36.3292607,11.7415642 Z M27.4897353,11.4558169 C27.4897353,9.55873825 27.4698687,7.66165954 27.4972404,5.76506973 C27.5133544,4.65019075 27.6294636,3.54484481 27.9731555,2.47836442 C28.2353943,1.66414343 28.782829,1.21926735 29.4788216,0.977029885 C31.3091961,0.339537138 33.151932,0.336848327 34.9977582,0.912253975 C37.5715843,1.71498641 39.4838533,3.44584766 40.7723113,6.01806247 C41.5877241,7.64552668 41.9673966,9.40914254 41.9510619,11.2739555 C41.9378176,12.7838453 41.8247989,14.2815133 41.4919233,15.7505821 C40.8537642,18.5677232 39.5807581,20.9045447 37.2791041,22.4242121 C35.7484942,23.4347163 34.0651325,23.8891254 32.289943,23.9653899 C31.2915369,24.0081665 30.3061544,23.998389 29.3375482,23.6527545 C28.2515083,23.2650767 27.7612452,22.4144346 27.6288014,21.2125359 C27.3272708,18.4789924 27.3912854,15.7334715 27.3800276,12.9899061 C27.3778202,12.4787875 27.3795861,11.9674244 27.3795861,11.4558169 L27.4897353,11.4558169 Z" id="Fill-10"></path>
                    <path d="M50.6256718,17.7882707 C51.6244469,17.4581354 52.5480477,17.1245535 53.4856191,16.8503025 C54.6759888,16.5024418 55.8723455,16.1907705 57.1243626,16.2624105 C58.1705925,16.3222337 59.0321026,16.7230243 59.4274882,17.8525252 C59.8521449,19.0649908 59.5321555,20.1418079 58.7178789,21.0418635 C58.0206877,21.811933 57.1547426,22.2947035 56.2493256,22.6605357 C53.8535073,23.6290311 51.3763054,24.0116039 48.8225991,23.9815693 C46.6638346,23.9562121 45.170994,22.8422209 44.1296424,20.8451609 C43.900128,20.4049806 43.7273825,19.9219639 43.5717121,19.441409 C43.2242254,18.3672999 43.6096317,17.413822 44.0538028,16.5021956 C45.0918281,14.3714567 46.4797799,12.5169384 47.8692832,10.6666052 C48.5094839,9.81406341 49.1636549,8.97456951 49.8102866,8.12818242 C49.8879001,8.02650762 49.9581957,7.91793964 50.0650806,7.76530439 C49.9384596,7.73231548 49.8533064,7.70523504 49.7663793,7.68824821 C48.1952602,7.38100822 46.6157141,7.11635838 45.0556825,6.75101853 C44.2329793,6.55825496 43.4708145,6.13653851 42.8873828,5.41152107 C42.0010363,4.31057775 42.2314376,1.53163138 44.1968337,0.856343475 C44.7598642,0.662841358 45.3601494,0.542456457 45.9484596,0.51291415 C47.9801597,0.410254633 49.9885757,0.65151681 51.9823562,1.09932895 C53.4071185,1.4196168 54.8108144,1.80612865 56.1009728,2.56659688 C57.092652,3.15104219 57.8585864,3.99718311 58.1359992,5.24682272 C58.3683961,6.29335893 58.2007512,7.32118506 57.6552388,8.19662207 C57.0192517,9.21755501 56.3056507,10.1813728 55.5920501,11.1387897 C54.1000964,13.1410196 52.5850807,15.1218313 51.0822611,17.1137214 C50.934352,17.3099315 50.8044046,17.5228823 50.6256718,17.7882707" id="Fill-12"></path>
                    <path d="M101.836536,7.50379915 C101.836536,7.97641007 101.816089,8.45098821 101.849068,8.9208943 C101.858962,9.06179235 101.993078,9.26096765 102.111804,9.31162208 C102.734235,9.57669733 103.38239,9.61333571 104.034063,9.45817572 C104.720475,9.29490119 105.331033,8.54885455 105.426453,7.77526765 C105.561889,6.67488576 105.236932,5.84252985 104.572067,5.37606629 C103.896209,4.90173403 102.46996,5.23738126 101.995057,5.78621978 C101.906452,5.8882664 101.849288,6.06285211 101.842473,6.2076845 C101.822905,6.63849323 101.835437,7.07151502 101.836536,7.50379915 Z M95.8318674,12.553507 C95.8318674,10.5907699 95.8155975,8.62778698 95.8382434,6.66554171 C95.8516551,5.51671845 95.9327844,4.37010821 96.3399702,3.28890616 C96.9287621,1.72574912 97.9203429,0.722495909 99.4411327,0.385127426 C101.827522,-0.144285361 104.206655,-0.179694298 106.544015,0.606679178 C108.304675,1.19904118 109.692448,2.36851969 110.396009,4.35314144 C110.770874,5.41098342 110.880366,6.5280862 110.828258,7.65969679 C110.764718,9.04531735 110.548593,10.3896275 109.94485,11.6316451 C109.147409,13.2722592 107.898589,14.2516606 106.329869,14.7675491 C105.110071,15.1688504 103.855974,15.2401601 102.594843,15.1742601 C102.291652,15.1585228 102.194692,15.2563892 102.189196,15.5944953 C102.163692,17.0829001 102.155996,18.5740099 102.064314,20.0579886 C102.013306,20.884443 101.86182,21.7155694 101.660866,22.5149753 C101.456833,23.3266761 100.876176,23.7855169 100.151509,23.9141201 C99.240398,24.0764111 98.3431387,23.9610862 97.5065611,23.4793771 C96.864782,23.1095504 96.5176192,22.4672716 96.390978,21.7219627 C96.1999177,20.5972371 96.013474,19.4572661 95.9732391,18.3175409 C95.9057412,16.3988192 95.9547708,14.4751795 95.9547708,12.553507 L95.8318674,12.553507 Z" id="Fill-14"></path>
                    <path d="M68.393395,0.570276528 C70.4191272,0.570276528 72.4455093,0.529566808 74.469943,0.58952112 C75.3285903,0.614933854 76.154121,0.912731617 76.7764077,1.69312459 C77.5913326,2.7150619 77.5095154,5.40782474 75.8307484,6.35475749 C75.0259966,6.80873254 74.1656175,6.98144041 73.2970138,7.12602159 C72.7323019,7.22002406 72.1602314,7.2678888 71.5901085,7.30243038 C71.329722,7.31846755 71.2769089,7.44306395 71.2788568,7.70681361 C71.2881642,8.88887579 71.2859996,10.070938 71.2838354,11.2530002 C71.2790734,14.0106519 71.2929262,16.7685503 71.2526669,19.5254618 C71.240113,20.3872742 71.1271273,21.2582155 70.9719344,22.1034972 C70.7963953,23.0583252 70.1903422,23.6188857 69.3775819,23.8170063 C68.3879836,24.0580572 67.3916758,24.0842101 66.4421206,23.5737349 C65.7536009,23.2038933 65.3585842,22.5554985 65.2388889,21.7242801 C65.1410545,21.0443044 65.089107,20.3482915 65.0873756,19.6591871 C65.0776354,15.7735061 65.089107,11.8878251 65.0930033,8.00214408 C65.0936524,7.41172983 65.0930033,7.40704202 64.5661699,7.3576969 C63.7709417,7.28343252 62.9685706,7.26591501 62.181784,7.12947576 C61.5900165,7.02708465 60.9811494,6.86449251 60.445009,6.57310961 C59.3125554,5.95802275 59.0435114,4.68713936 59.2261929,3.35087369 C59.4590904,1.64920744 60.293712,0.953194609 61.6495396,0.721272574 C62.5752856,0.563121484 63.5215939,0.531540612 64.4601104,0.507114781 C65.7704839,0.473066653 67.0821559,0.498726111 68.393395,0.498726111 L68.393395,0.570276528 Z" id="Fill-16"></path>
                    <path d="M19.1635915,8.59598429 C19.1635915,6.28107752 19.1706561,3.96592623 19.1563062,1.65126395 C19.1540985,1.28622848 19.2560932,1.08794063 19.5640642,0.954689235 C20.8721129,0.389165434 22.1761878,0.282075323 23.4782758,0.954200242 C24.3560482,1.40749947 24.8037651,2.21703226 24.9571987,3.2466132 C25.2360283,5.11751167 25.1817195,7.00381349 25.1258653,8.88571436 C25.0293897,12.1402269 24.8896438,15.3932723 24.7792599,18.6472958 C24.7348856,19.9646509 24.7130296,21.2829839 24.6982382,22.6010725 C24.6951474,22.8734432 24.6302417,23.0577947 24.4165386,23.1976475 C23.011352,24.1174489 21.5600251,24.2639032 20.0844137,23.4538814 C19.4876786,23.1262541 19.0993482,22.536036 19.0772713,21.7856717 C19.0205341,19.8646512 18.9671083,17.9406967 18.9973535,16.0194316 C19.0362086,13.5446232 19.1576308,11.0712817 19.2435095,8.59745127 C19.2170173,8.59696229 19.1903044,8.59647327 19.1635915,8.59598429" id="Fill-18"></path>
                    <path d="M118.758559,9.58284684 C118.612504,13.2967369 118.467337,16.8890005 118.333286,20.4812642 C118.306165,21.2078416 118.335954,21.9366216 118.30372,22.6627096 C118.295717,22.8445375 118.19101,23.0782463 118.061183,23.1881262 C116.953206,24.1276112 114.826842,24.2541321 113.640613,23.4627035 C113.06395,23.0782463 112.671579,22.5141638 112.656906,21.7638484 C112.616669,19.720181 112.59266,17.6748005 112.616002,15.6311332 C112.65246,12.4531827 112.747163,9.27572162 112.789623,6.09777113 C112.809631,4.6030136 112.774506,3.10727713 112.743606,1.61251958 C112.736714,1.27382533 112.847645,1.09419992 113.12175,0.973062884 C114.446253,0.387444869 115.771201,0.277565016 117.095927,0.956911279 C117.980041,1.41062452 118.42999,2.22187556 118.582937,3.25190741 C118.854818,5.08389088 118.790794,6.9300682 118.759448,8.77453243 C118.754113,9.08410488 118.758559,9.39416674 118.758559,9.58284684" id="Fill-20"></path>
                </g>
            </g>
        </g>
    </g>
</svg>