<?xml version="1.0" encoding="UTF-8"?>
<svg width="52px" height="38px" viewBox="0 0 52 38" version="1.1" xmlns="http://www.w3.org/2000/svg" xmlns:xlink="http://www.w3.org/1999/xlink">
    <!-- Generator: sketchtool 51.2 (57519) - http://www.bohemiancoding.com/sketch -->
    <title>426390E9-2F0C-4F55-BA9B-3382CD3F374E</title>
    <desc>Created with sketchtool.</desc>
    <defs></defs>
    <g id="Page-1" stroke="none" stroke-width="1" fill="none" fill-rule="evenodd">
        <g id="Artboard-(1)" transform="translate(-110.000000, -2036.000000)" fill-rule="nonzero">
            <g id="Group-5" transform="translate(80.000000, 1986.000000)">
                <g id="mat" transform="translate(30.000000, 50.000000)">
                    <g id="Group" transform="translate(1.000000, 1.000000)">
                        <path d="M50,21.8148641 C50,21.8148641 36.7590447,23.598 35.3232724,34.9826505 C35.2804878,35.3222913 35.2460366,35.6412233 35.2188008,35.9428544 L41.3854675,35.9428544 C41.3853659,35.9428544 40.109248,30.4561748 50,21.8148641 Z" id="Shape" fill="#96CA59"></path>
                        <g transform="translate(0.000000, 10.310680)" fill="#55BD8B" id="Shape">
                            <path d="M0.000101626016,11.5041845 C0.000101626016,11.5041845 13.2410569,13.2873204 14.6768293,24.6719709 C14.7196138,25.0116117 14.754065,25.3305437 14.7813008,25.6321748 L8.61463415,25.6321748 C8.61473577,25.6321748 9.89085366,20.1454951 0.000101626016,11.5041845 Z"></path>
                            <path d="M49.5838415,0.0725242718 C49.5838415,0.0725242718 37.2120935,1.73866019 29.2863821,10.3209029 L29.2787602,10.3292039 C29.110874,10.5112136 28.9450203,10.6963689 28.7811992,10.8845825 L28.7667683,10.9010971 C28.604065,11.0885243 28.4435976,11.2790971 28.2853659,11.4728155 L28.2682927,11.4935243 C28.1107724,11.6867184 27.9555894,11.8830583 27.8027439,12.0827184 L27.7852642,12.1055243 C27.6327236,12.3051845 27.482622,12.5079903 27.3351626,12.7140291 L27.3185976,12.7372718 C27.1716463,12.9432233 27.0272358,13.1524951 26.8854675,13.365 L26.8710366,13.3866699 C26.7302846,13.598301 26.592378,13.8132524 26.4573171,14.0314369 L26.4385163,14.0616699 C26.3044715,14.2788932 26.173374,14.4994369 26.045122,14.7232136 L26.0234756,14.7609612 C25.8963415,14.9836893 25.7721545,15.2098252 25.6512195,15.4391942 L25.6292683,15.4808738 C25.5086382,15.7106796 25.3911585,15.9437184 25.2769309,16.180165 L25.2580285,16.2196602 C25.1448171,16.4551456 25.0348577,16.6942136 24.9281504,16.9364272 L24.9095528,16.9786311 C24.8034553,17.2210194 24.700813,17.4669903 24.6017276,17.7161942 L24.5832317,17.7622427 C24.4845528,18.0117087 24.3896341,18.2647573 24.2980691,18.5211262 L24.2789634,18.5747767 C24.1881098,18.831233 24.1011179,19.0910971 24.0178862,19.3543689 L24.0013211,19.4073204 C23.974187,19.4938252 23.947561,19.5806796 23.9212398,19.6679709 C24.3610772,21.0196311 24.6931911,22.4702039 24.8900407,24.0311359 C24.9613821,24.5973495 25.0188008,25.1292233 25.0644309,25.6322621 L33.9986789,25.6322621 C33.9987805,25.6321748 31.6898374,15.7061359 49.5838415,0.0725242718 Z"></path>
                        </g>
                        <g transform="translate(0.406504, 0.000000)" fill="#96CA59" id="Shape">
                            <path d="M0.00965447154,12.384 C0.00965447154,12.384 22.0895325,15.3574951 24.4836382,34.3417282 C24.5550813,34.9079417 24.6123984,35.4398155 24.6580285,35.9428544 L14.3747967,35.9428544 C14.3747967,35.9428544 16.5030488,26.7938738 0.00965447154,12.384 Z"></path>
                            <path d="M24.85,0.0572330097 C26.3527439,0.0572330097 27.7464431,7.70653398 28.879878,20.6314951 C26.5799797,23.1218738 24.6547764,26.1948058 23.5145325,29.978301 C22.786687,27.7411456 21.7596545,25.7787961 20.5352642,24.0619806 C21.7160569,9.07086408 23.2188008,0.0572330097 24.85,0.0572330097 Z"></path>
                        </g>
                    </g>
                    <g id="Group" fill="#000001">
                        <path d="M50.8850916,37.9424722 C51.4448265,37.9424722 51.8987368,37.548662 51.8987368,37.0628426 C51.8987368,36.5770231 51.4449279,36.183213 50.8850916,36.183213 L43.2551813,36.183213 C43.2778869,35.6099583 43.4037817,34.6982222 43.8541442,33.4831898 C44.6553294,31.3218519 46.6507914,27.8280509 51.6074152,23.4573472 C51.9140429,23.1868611 51.9863158,22.776162 51.7866277,22.4385602 C51.5868382,22.1009583 51.1602963,21.9126296 50.728078,21.9713009 C50.5849513,21.9907407 47.1809279,22.4702269 43.5666745,24.4237963 C41.1741676,25.7170278 38.3731618,27.8529444 36.6705419,31.2308981 C36.7780897,30.8993657 36.8975984,30.5556944 37.0334269,30.1979491 C38.5332164,26.246213 42.2069708,19.8724167 51.1925302,11.9492407 C51.4991579,11.6787546 51.5714308,11.2680556 51.3717427,10.9304537 C51.1719532,10.5928519 50.7457154,10.4044352 50.313193,10.4631944 C44.1264094,11.3041204 38.3562339,13.6533472 33.6266667,17.256838 C32.7126628,17.9532407 31.8510643,18.6870278 31.0438986,19.4543287 C30.5205536,13.8483611 29.9528109,9.41942593 29.3532398,6.27043981 C29.004039,4.43614815 28.6387212,3.02064815 28.267423,2.06308333 C28.0346901,1.46291204 27.4897544,0.0575277778 26.2052632,0.0575277778 C25.015345,0.0575277778 24.4448655,1.20658796 24.0437661,2.3305787 C23.6463158,3.44418981 23.2557583,5.09217593 22.8827368,7.2287963 C22.2404912,10.9078472 21.6396023,16.0524491 21.0930448,22.5432361 C19.0004756,20.196912 16.3765536,18.1618009 13.2746979,16.4852269 C7.36332164,13.2900602 1.81878363,12.5089491 1.58574659,12.4772824 C1.15403509,12.4185231 0.72688499,12.6067639 0.527196881,12.9444537 C0.327407407,13.2820556 0.399680312,13.6927546 0.706510721,13.9632407 C6.49047173,19.0634213 9.88233138,23.4645602 11.8710019,26.8923889 C10.7074386,25.8493241 9.4734269,25.0404167 8.33236647,24.4237083 C4.71811306,22.4700509 1.31408967,21.9906528 1.17096296,21.971213 C0.739251462,21.9123657 0.312101365,22.1006944 0.112413255,22.4384722 C-0.0873762183,22.7760741 -0.0151033138,23.1867731 0.291625731,23.4572593 C5.15387914,27.744662 7.15684211,31.1839259 7.98083431,33.314125 C8.47985185,34.6039259 8.61638986,35.5780278 8.64051462,36.183125 L8.21164133,36.183125 C8.21123587,36.183125 8.21093177,36.183125 8.21062768,36.183125 L4.00998051,36.183125 C3.45024561,36.183125 2.99633528,36.5769352 2.99633528,37.0627546 C2.99633528,37.5485741 3.45024561,37.9423843 4.00998051,37.9423843 L50.8850916,37.9424722 C50.8854971,37.9424722 50.885193,37.9424722 50.8854971,37.9424722 L50.8850916,37.9424722 Z M44.5773801,25.9502176 C45.652655,25.3639444 46.7166784,24.9213148 47.6614971,24.5911898 C42.1500039,30.2269769 41.2886082,34.3478657 41.2303236,36.183125 L37.254807,36.183125 C37.812616,31.7383565 40.2762807,28.2955741 44.5773801,25.9502176 Z M47.4871501,12.7770602 C44.3704951,15.7216204 41.7428226,18.6545694 39.6545107,21.52225 C37.5793762,24.3717222 36.0266745,27.1668333 35.0394854,29.829912 C33.9305575,32.8217963 33.7814503,34.9914028 33.8215906,36.183125 L31.9373255,36.183125 C31.8397115,33.1422454 32.7954776,29.7237407 34.7826277,26.0144306 C35.0186043,25.573912 34.7983392,25.0507083 34.2907057,24.8459306 C33.782768,24.6410648 33.1801559,24.8322963 32.9441793,25.2727269 C30.8339727,29.2118843 29.8147524,32.8793241 29.9095283,36.183125 L26.9437037,36.183125 C26.9142066,35.910088 26.8820741,35.6337083 26.847306,35.3560972 C26.6612008,33.8668843 26.3523431,32.4322083 25.9238752,31.0552361 C28.659501,22.2411713 37.0970838,15.1854861 47.4871501,12.7770602 Z M24.7254425,8.4557037 C25.3357583,4.67751852 25.8707602,3.0060463 26.2049591,2.27164352 C26.5079376,2.93734722 26.9770526,4.37387037 27.5162105,7.45178241 C28.1086862,10.8337824 28.6701442,15.5223843 29.1853801,21.3896898 C27.3514932,23.4872546 25.8898168,25.7874861 24.8397817,28.2312731 C24.3014347,27.0658519 23.6654737,25.9503056 22.9346355,24.8868333 C23.4784561,17.9750556 24.0807641,12.447287 24.7254425,8.4557037 Z M12.2647018,18.0121759 C15.9561949,20.0179074 18.858768,22.4945046 20.9579259,25.4216481 C21.0008031,25.5168241 21.0612164,25.6046111 21.1376452,25.6806111 C22.3167173,27.3775046 23.2306199,29.2228796 23.8763119,31.2129537 C23.8883743,31.2714491 23.9072281,31.3281852 23.9322651,31.3828102 C24.3500897,32.7074444 24.6508382,34.0952361 24.832078,35.5458333 C24.8588382,35.7596713 24.8835712,35.9720139 24.9070877,36.183125 L16.8549942,36.183125 C16.8835789,35.0630046 16.7299103,33.0808472 15.726807,30.3750185 C13.9046784,25.4593843 10.1570292,20.2791574 4.56961404,14.9460509 C6.62883431,15.5120926 9.42152827,16.4673704 12.2647018,18.0121759 Z M4.23440156,24.5885509 C5.15996101,24.9122546 6.20158285,25.3450324 7.26033528,25.9172315 C11.5992437,28.2625 14.083384,31.7165417 14.6438285,36.1833009 L10.6685146,36.1833009 C10.61023,34.3476898 9.74863158,30.2257454 4.23440156,24.5885509 Z" id="Shape"></path>
                        <path d="M34.9888031,23.7229954 C35.1315244,23.78325 35.2824561,23.81175 35.4311579,23.81175 C35.8052943,23.81175 36.1651384,23.631162 36.341614,23.3208287 C36.6262456,22.9184861 36.4938635,22.3897407 36.0366082,22.1273472 C35.5696218,21.859412 34.940655,21.9705093 34.632,22.3758426 C34.5821287,22.441287 34.5407719,22.5115694 34.520499,22.5476343 C34.2756023,22.9844583 34.4854269,23.5104769 34.9888031,23.7229954 Z" id="Shape"></path>
                        <path d="M1.06179337,36.183125 L1.01364522,36.183125 C0.453910331,36.183125 0,36.5769352 0,37.0627546 C0,37.5485741 0.453910331,37.9423843 1.01364522,37.9423843 L1.06179337,37.9423843 C1.62162963,37.9423843 2.0754386,37.5485741 2.0754386,37.0627546 C2.0754386,36.5769352 1.62152827,36.183125 1.06179337,36.183125 Z" id="Shape"></path>
                    </g>
                </g>
            </g>
        </g>
    </g>
</svg>