<?xml version="1.0" encoding="UTF-8"?>
<svg width="100px" height="100px" viewBox="0 0 100 100" version="1.1" xmlns="http://www.w3.org/2000/svg" xmlns:xlink="http://www.w3.org/1999/xlink">
    <!-- Generator: sketchtool 51.2 (57519) - http://www.bohemiancoding.com/sketch -->
    <title>F1ABE55E-185C-41A7-944A-6F6AA36447E8</title>
    <desc>Created with sketchtool.</desc>
    <defs></defs>
    <g id="Page-1" stroke="none" stroke-width="1" fill="none" fill-rule="evenodd">
        <g id="Artboard-(1)" transform="translate(-838.000000, -2756.000000)" fill-rule="nonzero">
            <g id="Group-25" transform="translate(0.000000, 2230.000000)">
                <g id="Group-7" transform="translate(771.000000, 424.000000)">
                    <g id="Group-8">
                        <g id="Clock" transform="translate(67.000000, 102.000000)">
                            <path d="M81.0855319,76.7419149 C87.3829787,69.4159574 90.8510638,60.07 90.8510638,50.4255319 C90.8510638,28.1348936 72.7161702,10 50.4255319,10 C28.1348936,10 10,28.1348936 10,50.4255319 C10,72.7161702 28.1348936,90.8510638 50.4255319,90.8510638 C60.07,90.8510638 69.4159574,87.3829787 76.7419149,81.0855319 C77.4021277,80.5180851 78.392766,80.586383 78.9706383,81.2325532 C79.752766,80.507234 80.5074468,79.752766 81.232766,78.9706383 C80.586383,78.392766 80.5178723,77.4021277 81.0855319,76.7419149 Z M48.8297872,14.787234 C48.8297872,13.9059574 49.5442553,13.1914894 50.4255319,13.1914894 C51.3068085,13.1914894 52.0212766,13.9059574 52.0212766,14.787234 L52.0212766,21.1702128 C52.0212766,22.0514894 51.3068085,22.7659574 50.4255319,22.7659574 C49.5442553,22.7659574 48.8297872,22.0514894 48.8297872,21.1702128 L48.8297872,14.787234 Z M21.1702128,52.0212766 L14.787234,52.0212766 C13.9059574,52.0212766 13.1914894,51.3068085 13.1914894,50.4255319 C13.1914894,49.5442553 13.9059574,48.8297872 14.787234,48.8297872 L21.1702128,48.8297872 C22.0514894,48.8297872 22.7659574,49.5442553 22.7659574,50.4255319 C22.7659574,51.3068085 22.0514894,52.0212766 21.1702128,52.0212766 Z M52.0212766,86.0638298 C52.0212766,86.9451064 51.3068085,87.6595745 50.4255319,87.6595745 C49.5442553,87.6595745 48.8297872,86.9451064 48.8297872,86.0638298 L48.8297872,79.6808511 C48.8297872,78.7995745 49.5442553,78.0851064 50.4255319,78.0851064 C51.3068085,78.0851064 52.0212766,78.7995745 52.0212766,79.6808511 L52.0212766,86.0638298 Z M76.7540426,30.867234 L56.1880851,51.4331915 C55.7087234,54.1808511 53.3080851,56.2765957 50.4255319,56.2765957 C49.3910638,56.2765957 48.4191489,56.0057447 47.5751064,55.532766 L30.8770213,72.2308511 C30.5655319,72.5423404 30.1570213,72.6982979 29.7487234,72.6982979 C29.3404255,72.6982979 28.9319149,72.5425532 28.6204255,72.2308511 C27.997234,71.6076596 27.997234,70.597234 28.6204255,69.9742553 L45.3185106,53.2761702 C45.002766,52.7125532 44.7780851,52.0919149 44.6631915,51.4334043 L30.867234,37.6374468 C30.2440426,37.0142553 30.2440426,36.0038298 30.867234,35.3808511 L35.3806383,30.8674468 C36.0038298,30.2442553 37.0142553,30.2442553 37.637234,30.8674468 L51.4331915,44.6634043 C51.5008511,44.6751064 51.5682979,44.6870213 51.6351064,44.7012766 L53.8095745,42.5270213 C53.1870213,41.9038298 53.1870213,40.8938298 53.8102128,40.2708511 L69.9838298,24.097234 C70.2829787,23.7980851 70.6889362,23.6297872 71.1121277,23.6297872 C71.5353191,23.6297872 71.9412766,23.7978723 72.2404255,24.097234 L76.7538298,28.6106383 C77.377234,29.233617 77.377234,30.2440426 76.7540426,30.867234 Z M79.6808511,52.0212766 C78.7995745,52.0212766 78.0851064,51.3068085 78.0851064,50.4255319 C78.0851064,49.5442553 78.7995745,48.8297872 79.6808511,48.8297872 L86.0638298,48.8297872 C86.9451064,48.8297872 87.6595745,49.5442553 87.6595745,50.4255319 C87.6595745,51.3068085 86.9451064,52.0212766 86.0638298,52.0212766 L79.6808511,52.0212766 Z" id="Shape" fill="#FFFFFF"></path>
                            <path d="M45.0659574,47.322766 C45.5951064,46.3782979 46.3782979,45.5951064 47.322766,45.0659574 L36.2568085,34 L34,36.2568085 L45.0659574,47.322766 Z" id="Shape" fill="#2BB4F3"></path>
                            <path d="M54.897234,47.0929787 L72.7334043,29.2568085 L70.4765957,27 L55.4314894,42.0453191 C54.8082979,42.6685106 53.7978723,42.6685106 53.1748936,42.0453191 C53.1742553,42.0446809 51,44.2189362 51,44.2189362 C52.6734043,44.5721277 54.0846809,45.6429787 54.897234,47.0929787 Z" id="Shape" fill="#B4E66E"></path>
                            <path d="M49.8085106,3 C23.9980851,3 3,23.9982979 3,49.8085106 C3,75.6189362 23.9980851,96.6170213 49.8085106,96.6170213 C75.6189362,96.6170213 96.6170213,75.6189362 96.6170213,49.8085106 C96.6170213,23.9982979 75.6189362,3 49.8085106,3 Z M82.8887234,78.2053191 C82.3142553,78.873617 81.3070213,78.9497872 80.6382979,78.3751064 C80.6302128,78.3682979 80.6234043,78.3604255 80.6155319,78.3534043 C79.8902128,79.1355319 79.1357447,79.8902128 78.3534043,80.6153191 C78.3604255,80.6231915 78.3680851,80.63 78.3751064,80.6380851 C78.9495745,81.306383 78.873617,82.3138298 78.2053191,82.8885106 C70.3006383,89.683617 60.2159574,93.4255319 49.8085106,93.4255319 C25.7578723,93.4255319 6.19148936,73.8591489 6.19148936,49.8085106 C6.19148936,25.7580851 25.7578723,6.19148936 49.8085106,6.19148936 C73.8591489,6.19148936 93.4255319,25.7580851 93.4255319,49.8085106 C93.4255319,60.2159574 89.683617,70.3006383 82.8887234,78.2053191 Z" id="Shape" fill="#FF5A59"></path>
                            <path d="M85.3553191,14.6446809 C75.9117021,5.20085106 63.3555319,0 50,0 C36.6444681,0 24.0882979,5.20085106 14.6446809,14.6446809 C5.20085106,24.0885106 0,36.6444681 0,50 C0,63.3555319 5.20085106,75.9117021 14.6446809,85.3553191 C24.0882979,94.7991489 36.6444681,100 50,100 C63.3555319,100 75.9117021,94.7991489 85.3553191,85.3553191 C94.7991489,75.9117021 100,63.3555319 100,50 C100,36.6444681 94.7991489,24.0885106 85.3553191,14.6446809 Z M50,96.8085106 C24.1895745,96.8085106 3.19148936,75.8104255 3.19148936,50 C3.19148936,24.1897872 24.1895745,3.19148936 50,3.19148936 C75.8104255,3.19148936 96.8085106,24.1897872 96.8085106,50 C96.8085106,75.8104255 75.8104255,96.8085106 50,96.8085106 Z" id="Shape" fill="#082947"></path>
                            <path d="M52.3191489,49.6595745 C52.3191489,48.1929787 51.1261702,47 49.6595745,47 C48.1929787,47 47,48.1929787 47,49.6595745 C47,51.1261702 48.1929787,52.3191489 49.6595745,52.3191489 C51.1261702,52.3191489 52.3191489,51.1261702 52.3191489,49.6595745 Z" id="Shape" fill="#FFCC75"></path>
                            <path d="M49.5957447,22.5744681 C50.4770213,22.5744681 51.1914894,21.86 51.1914894,20.9787234 L51.1914894,14.5957447 C51.1914894,13.7144681 50.4770213,13 49.5957447,13 C48.7144681,13 48,13.7144681 48,14.5957447 L48,20.9787234 C48,21.86 48.7144681,22.5744681 49.5957447,22.5744681 Z" id="Shape" fill="#082947"></path>
                            <path d="M87.5744681,49.5957447 C87.5744681,48.7144681 86.86,48 85.9787234,48 L79.5957447,48 C78.7144681,48 78,48.7144681 78,49.5957447 C78,50.4770213 78.7144681,51.1914894 79.5957447,51.1914894 L85.9787234,51.1914894 C86.86,51.1914894 87.5744681,50.4770213 87.5744681,49.5957447 Z" id="Shape" fill="#082947"></path>
                            <path d="M49.5957447,78 C48.7144681,78 48,78.7144681 48,79.5957447 L48,85.9787234 C48,86.86 48.7144681,87.5744681 49.5957447,87.5744681 C50.4770213,87.5744681 51.1914894,86.86 51.1914894,85.9787234 L51.1914894,79.5957447 C51.1914894,78.7144681 50.4770213,78 49.5957447,78 Z" id="Shape" fill="#082947"></path>
                            <path d="M20.9787234,48 L14.5957447,48 C13.7144681,48 13,48.7144681 13,49.5957447 C13,50.4770213 13.7144681,51.1914894 14.5957447,51.1914894 L20.9787234,51.1914894 C21.86,51.1914894 22.5744681,50.4770213 22.5744681,49.5957447 C22.5744681,48.7144681 21.86,48 20.9787234,48 Z" id="Shape" fill="#082947"></path>
                            <path d="M72.0873936,23.4674468 C71.7882447,23.1682979 71.3822872,23 70.9590957,23 C70.5359043,23 70.1299468,23.1680851 69.8307979,23.4674468 L53.6571809,39.6410638 C53.0342021,40.2640426 53.0339894,41.2740426 53.6565426,41.897234 C54.2801596,42.5210638 55.2905851,42.5210638 55.9137766,41.8978723 L70.958883,26.8525532 L73.2156915,29.1093617 L55.3795213,46.9455319 C54.5669681,45.4955319 53.1556915,44.4246809 51.4820745,44.0712766 C51.415266,44.057234 51.3476064,44.0453191 51.2801596,44.0334043 L37.4842021,30.2374468 C36.8610106,29.6142553 35.8505851,29.6142553 35.2276064,30.2374468 L30.7142021,34.7508511 C30.0910106,35.3740426 30.0910106,36.3844681 30.7142021,37.0074468 L44.5101596,50.8034043 C44.6250532,51.4617021 44.849734,52.0825532 45.1654787,52.6461702 L28.4673936,69.3442553 C27.8442021,69.9674468 27.8442021,70.9778723 28.4673936,71.6008511 C28.778883,71.9123404 29.1873936,72.0682979 29.5956915,72.0682979 C30.0039894,72.0682979 30.4125,71.9125532 30.7239894,71.6008511 L47.4220745,54.902766 C48.266117,55.3757447 49.2380319,55.6465957 50.2725,55.6465957 C53.1550532,55.6465957 55.5556915,53.5508511 56.0348404,50.8034043 L76.6007979,30.2374468 C77.2239894,29.6142553 77.2239894,28.6038298 76.6007979,27.9808511 L72.0873936,23.4674468 Z M47.4220745,44.6887234 C46.4776064,45.2178723 45.6944149,46.0010638 45.165266,46.9455319 L34.0993085,35.8795745 L36.356117,33.622766 L47.4220745,44.6887234 Z M47.6129255,49.7959574 C47.6129255,48.3293617 48.8059043,47.136383 50.2725,47.136383 C51.7390957,47.136383 52.9320745,48.3293617 52.9320745,49.7959574 C52.9320745,51.2625532 51.7390957,52.4555319 50.2725,52.4555319 C48.8059043,52.4555319 47.6129255,51.2625532 47.6129255,49.7959574 Z" id="Shape" fill="#082947"></path>
                            <path d="M49.6170213,6 C25.566383,6 6,25.5665957 6,49.6170213 C6,73.6676596 25.566383,93.2340426 49.6170213,93.2340426 C60.0244681,93.2340426 70.1091489,89.4921277 78.0138298,82.697234 C78.6821277,82.122766 78.7582979,81.1151064 78.183617,80.4468085 C78.1768085,80.4387234 78.1689362,80.4319149 78.1619149,80.4240426 C77.5840426,79.7778723 76.593617,79.7095745 75.9331915,80.2770213 C68.6074468,86.5744681 59.2614894,90.0425532 49.6170213,90.0425532 C27.326383,90.0425532 9.19148936,71.9076596 9.19148936,49.6170213 C9.19148936,27.326383 27.326383,9.19148936 49.6170213,9.19148936 C71.9076596,9.19148936 90.0425532,27.326383 90.0425532,49.6170213 C90.0425532,59.2614894 86.5744681,68.6074468 80.2770213,75.9334043 C79.7093617,76.593617 79.7778723,77.5842553 80.4240426,78.1621277 C80.4319149,78.1691489 80.4387234,78.1768085 80.4468085,78.1838298 C81.1155319,78.7582979 82.122766,78.6821277 82.697234,78.0140426 C89.4921277,70.1091489 93.2340426,60.0244681 93.2340426,49.6170213 C93.2340426,25.5665957 73.6676596,6 49.6170213,6 Z" id="Shape" fill="#082947"></path>
                        </g>
                    </g>
                </g>
            </g>
        </g>
    </g>
</svg>