<?xml version="1.0" encoding="UTF-8"?>
<svg width="30px" height="30px" viewBox="0 0 30 30" version="1.1" xmlns="http://www.w3.org/2000/svg" xmlns:xlink="http://www.w3.org/1999/xlink">
    <!-- Generator: sketchtool 51.3 (57544) - http://www.bohemiancoding.com/sketch -->
    <title>076DFAF7-8E8F-41F5-B1AE-23F251344F5F</title>
    <desc>Created with sketchtool.</desc>
    <defs></defs>
    <g id="Page-1" stroke="none" stroke-width="1" fill="none" fill-rule="evenodd" opacity="0.400000006">
        <g id="Artboard-(1)" transform="translate(-467.000000, -4379.000000)" fill="#000000" fill-rule="nonzero">
            <g id="Group-16" transform="translate(0.000000, 3620.000000)">
                <g id="Group-15" transform="translate(0.000000, 355.000000)">
                    <g id="Group-9" transform="translate(80.000000, 0.000000)">
                        <g id="Group-10" transform="translate(326.000000, 404.000000)">
                            <g id="instagram" transform="translate(61.000000, 0.000000)">
                                <path d="M21.0259783,0 L8.92152174,0 C4.00217391,0 0,4.00217391 0,8.92152174 L0,21.0259783 C0,25.9453261 4.00217391,29.9475 8.92152174,29.9475 L21.0259783,29.9475 C25.9453261,29.9475 29.9475,25.9453261 29.9475,21.0259783 L29.9475,8.92152174 C29.9474457,4.00217391 25.9452717,0 21.0259783,0 Z M26.9347826,21.0259783 C26.9347826,24.2892935 24.2892935,26.9347826 21.0259783,26.9347826 L8.92152174,26.9347826 C5.65820652,26.9347826 3.01271739,24.2892935 3.01271739,21.0259783 L3.01271739,8.92152174 C3.01271739,5.65815217 5.65820652,3.01271739 8.92152174,3.01271739 L21.0259783,3.01271739 C24.2892935,3.01271739 26.9347826,5.65815217 26.9347826,8.92152174 L26.9347826,21.0259783 Z" id="Shape"></path>
                                <path d="M15.7454891,7 C11.4746196,7 8,10.4746196 8,14.7454348 C8,19.01625 11.4746196,22.4909239 15.7454891,22.4909239 C20.0163587,22.4909239 23.4909783,19.0163043 23.4909783,14.7454348 C23.4909783,10.4745652 20.0163587,7 15.7454891,7 Z M15.7454891,19.4782609 C13.1316304,19.4782609 11.0127174,17.3593478 11.0127174,14.7454891 C11.0127174,12.1316304 13.1316848,10.0127174 15.7454891,10.0127174 C18.3593478,10.0127174 20.4782609,12.1316304 20.4782609,14.7454891 C20.4782609,17.3592935 18.3592935,19.4782609 15.7454891,19.4782609 Z" id="Shape"></path>
                                <circle id="Oval" cx="22.8559783" cy="7.85597826" r="1.85597826"></circle>
                            </g>
                        </g>
                    </g>
                </g>
            </g>
        </g>
    </g>
</svg>