<?xml version="1.0" encoding="UTF-8"?>
<svg width="44px" height="60px" viewBox="0 0 44 60" version="1.1" xmlns="http://www.w3.org/2000/svg" xmlns:xlink="http://www.w3.org/1999/xlink">
    <!-- Generator: sketchtool 51.2 (57519) - http://www.bohemiancoding.com/sketch -->
    <title>07AD132E-C343-44A2-A1E0-21735AEF29C5</title>
    <desc>Created with sketchtool.</desc>
    <defs></defs>
    <g id="Page-1" stroke="none" stroke-width="1" fill="none" fill-rule="evenodd">
        <g id="Artboard-(1)" transform="translate(-110.000000, -1854.000000)" fill-rule="nonzero">
            <g id="Group-12" transform="translate(80.000000, 1812.000000)">
                <g id="lady-staff" transform="translate(30.000000, 42.000000)">
                    <polygon id="Shape" fill="#F9DC6A" points="8.98184006 18.0249023 34.9299369 18.0249023 34.9299369 38.013153 8.98184006 38.013153"></polygon>
                    <polygon id="Shape" fill="#FFCCAA" points="17.9636801 30.0178528 25.9476396 30.0178528 25.9476396 42.0108033 17.9636801 42.0108033"></polygon>
                    <path d="M26.3220163,38.013153 L34.9294797,38.013153 C39.339262,38.013153 42.9134392,41.592865 42.9134392,46.0084534 L42.9134392,59.0007019 L0.997880681,59.0007019 L0.997880681,46.0084534 C0.997880681,41.592865 4.57251499,38.013153 8.98184006,38.013153 L26.3220163,38.013153 Z" id="Shape" fill="#2BB4F3"></path>
                    <path d="M9.48100895,24.0216064 L13.9717004,24.0216064 L13.9717004,19.0246582 L9.48100895,19.0246582 C8.10280923,19.0246582 6.98607882,20.1429749 6.98607882,21.5231323 C6.98607882,22.902832 8.10280923,24.0216064 9.48100895,24.0216064 Z" id="Shape" fill="#FFCCAA"></path>
                    <path d="M34.4307679,24.0216064 L30.9379571,24.0216064 L30.9379571,19.0246582 L34.4307679,19.0246582 C35.8085106,19.0246582 36.9256981,20.1429749 36.9256981,21.5231323 C36.9256981,22.902832 35.8085106,24.0216064 34.4307679,24.0216064 Z" id="Shape" fill="#FFCCAA"></path>
                    <polygon id="Shape" fill="#DE9A9E" points="22.9539977 54.0037536 24.9497589 54.0037536 24.9497589 56.0028076 22.9539977 56.0028076"></polygon>
                    <polygon id="Shape" fill="#FFCCAA" points="0.997880681 52.0051575 8.98184006 52.0051575 8.98184006 59.0007019 0.997880681 59.0007019"></polygon>
                    <polygon id="Shape" fill="#FFCCAA" points="34.9294797 52.0051575 42.9134392 52.0051575 42.9134392 59.0007019 34.9294797 59.0007019"></polygon>
                    <path d="M11.9759392,7.15667719 L11.9759392,23.1472779 C11.9759392,28.6665345 16.4442321,33.1411744 21.9556599,33.1411744 C27.4675449,33.1411744 31.9358378,28.6665345 31.9358378,23.1472779 L31.9358378,7.03170773 L11.9759392,7.15667719 Z" id="Shape" fill="#FFCCAA"></path>
                    <g id="Group" transform="translate(15.914894, 18.984375)" fill="#834B10">
                        <path d="M1.05090595,3.03817746 C0.499625968,3.03817746 0.053025266,2.59094238 0.053025266,2.03887945 L0.053025266,1.03958133 C0.053025266,0.487518281 0.499625968,0.0402832031 1.05090595,0.0402832031 C1.60218581,0.0402832031 2.04878651,0.487518281 2.04878651,1.03958133 L2.04878651,2.03887945 C2.04878651,2.59094238 1.60218581,3.03817746 1.05090595,3.03817746 Z" id="Shape"></path>
                        <path d="M11.0310838,3.03817746 C10.4798039,3.03817746 10.032746,2.59094238 10.032746,2.03887945 L10.032746,1.03958133 C10.032746,0.487518281 10.4798039,0.0402832031 11.0310838,0.0402832031 C11.5819066,0.0402832031 12.0289645,0.487518281 12.0289645,1.03958133 L12.0289645,2.03887945 C12.0289645,2.59094238 11.5819066,3.03817746 11.0310838,3.03817746 Z" id="Shape"></path>
                        <path d="M7.03910409,6.03652957 C6.88459937,6.03652957 6.73192323,6.00082395 6.59387464,5.93170172 L4.59765619,4.93240359 C4.10488697,4.68566895 3.90467094,4.08599859 4.1505984,3.59207156 L5.14847909,1.59347531 C5.39852055,1.10137945 5.99916888,0.90499875 6.49056685,1.15493777 C6.97647945,1.40213016 7.17440994,1.99401855 6.93488201,2.48474121 L6.38223066,3.59527594 L7.48616187,4.14688113 C7.97710276,4.39727789 8.17229062,4.99923703 7.92224903,5.49087527 C7.75265957,5.82366937 7.4121094,6.03424078 7.03910409,6.03652957 Z" id="Shape"></path>
                        <path d="M6.04076632,9.50454715 C5.19327623,9.50500488 4.35767118,9.30816656 3.59886134,8.93005371 C3.10563491,8.68331906 2.90541888,8.08273312 3.15180355,7.58880609 C3.39818811,7.09487918 3.99792215,6.89437863 4.49114857,7.14111328 C5.46708777,7.62771609 6.61490196,7.62771609 7.59084115,7.14111328 C8.08406746,6.89437863 8.6838015,7.09487918 8.93018617,7.58880609 C9.17657084,8.08273312 8.97635469,8.68331906 8.48312838,8.93005371 C7.72431843,9.30816656 6.88825629,9.50500488 6.04076632,9.50454715 Z" id="Shape"></path>
                    </g>
                    <path d="M10.3490691,6.34780887 C11.3405502,4.71908566 13.0679854,3.68179324 14.9700382,3.57376102 L15.9679189,3.57376102 C15.9679189,3.57376102 17.9636801,-0.9635925 25.9476396,2.03475949 C27.1343085,2.28424078 30.0694398,4.22012332 31.0956615,4.86877441 C32.9337184,6.03240961 34.9294797,8.31665039 34.9294797,10.96344 L34.9294797,19.0246582 L31.9358378,19.0246582 L25.5485788,16.4680481 C23.1747839,15.5172729 21.0181184,14.0931702 19.210231,12.2827148 L15.9679189,9.03030398 L11.9759392,19.0246582 L8.98184006,19.0246582 L8.98184006,12.028656 C8.98184006,9.03030398 9.2474236,7.96325684 10.3490691,6.34780887 Z" id="Shape" fill="#F9DC6A"></path>
                    <polygon id="Shape" fill="#2BB4F3" points="15.9679189 38.013153 14.9700382 38.013153 13.9717004 45.0091553 20.9609791 50.0061035"></polygon>
                    <polygon id="Shape" fill="#2BB4F3" points="27.9438581 38.013153 28.9417386 38.013153 29.9089927 45.0091553 22.9539977 50.0061035"></polygon>
                    <path d="M22.579621,51.386261 C22.8164062,51.1967468 22.9539977,50.9092712 22.9539977,50.605774 L22.9539977,49.0068054 C22.9539977,48.4547425 22.5069398,48.0075073 21.9556599,48.0075073 C21.404837,48.0075073 20.9577793,48.4547425 20.9577793,49.0068054 L20.9577793,50.1251221 L18.3380568,52.2239685 C18.1012716,52.4134827 17.9636801,52.7009583 17.9636801,53.0044556 L17.9636801,59.0007019 L19.9598986,59.0007019 L19.9598986,53.484192 L22.579621,51.386261 Z" id="Shape" fill="#DE9A9E"></path>
                    <polygon id="Shape" fill="#FFCCAA" points="15.9679189 38.013153 20.9577793 50.0061035 22.9507979 50.0061035 27.9438581 38.013153"></polygon>
                    <path d="M33.9315991,59.0007019 L34.2209525,58.7109375 C35.313913,57.6164245 35.9278175,56.1323548 35.9278175,54.5846557 L35.9278175,53.7309265 C35.9278175,53.2534791 35.8167386,52.7819824 35.6032663,52.3548889 L34.1254156,49.3945312 C33.9978807,49.1395569 33.9315991,48.8580322 33.9315991,48.5728454 L33.9315991,47.0077514 L31.9358378,47.0077514 L31.9358378,59.0007019 L33.9315991,59.0007019 Z" id="Shape" fill="#2BB4F3"></path>
                    <path d="M9.97972074,59.0007019 L9.69036738,58.7109375 C8.597864,57.6164245 7.98395938,56.1323548 7.98395938,54.5846557 L7.98395938,53.7309265 C7.9835023,53.2534791 8.09458112,52.7819824 8.30851064,52.3548889 L9.78636134,49.3945312 C9.91389628,49.1395569 9.98017783,48.8580322 9.97972074,48.5728454 L9.97972074,47.0077514 L12.9738199,47.0077514 L12.9738199,59.0007019 L9.97972074,59.0007019 Z" id="Shape" fill="#2BB4F3"></path>
                    <path d="M42.9134392,60 L0.997880681,60 C0.447057787,60 2.84217094e-14,59.5532227 2.84217094e-14,59.0007019 L2.84217094e-14,46.0084534 C2.84217094e-14,41.048584 4.02946313,37.0138549 8.98184006,37.0138549 L17.7972906,37.0138549 C18.3485705,37.0138549 18.7951712,37.4606323 18.7951712,38.013153 C18.7951712,38.5652161 18.3485705,39.0124512 17.7972906,39.0124512 L8.98184006,39.0124512 C5.12973743,39.0124512 1.99621845,42.1513366 1.99621845,46.0084534 L1.99621845,58.0014038 L41.9155585,58.0014038 L41.9155585,46.0084534 C41.9155585,42.1513366 38.7815824,39.0124512 34.9299369,39.0124512 L26.3220163,39.0124512 C25.7702793,39.0124512 25.3241356,38.5652161 25.3241356,38.013153 C25.3241356,37.4606323 25.7702793,37.0138549 26.3220163,37.0138549 L34.9294797,37.0138549 C39.8827709,37.0138549 43.911777,41.048584 43.911777,46.0084534 L43.911777,59.0007019 C43.911777,59.5532227 43.4651763,60 42.9134392,60 Z" id="Shape" fill="#000000"></path>
                    <path d="M21.9556599,34.0155029 C15.9025515,34.0155029 10.9780585,29.0835572 10.9780585,23.0223083 L10.9780585,19.0246582 C10.9780585,18.4725952 11.4246592,18.0253601 11.9759392,18.0253601 C12.5272191,18.0253601 12.9738199,18.4725952 12.9738199,19.0246582 L12.9738199,23.0223083 C12.9738199,27.98172 17.0032829,32.0164489 21.9556599,32.0164489 C26.908494,32.0164489 30.9375,27.98172 30.9375,23.0223083 L30.9375,19.8989869 C30.9375,19.3473816 31.3841007,18.8996888 31.9358378,18.8996888 C32.4871177,18.8996888 32.9337184,19.3473816 32.9337184,19.8989869 L32.9337184,23.0223083 C32.9337184,29.0835572 28.0092253,34.0155029 21.9556599,34.0155029 Z" id="Shape" fill="#000000"></path>
                    <path d="M16.9657996,22.0184326 C16.4145196,22.0184326 15.9679189,21.5711975 15.9679189,21.0191345 L15.9679189,20.0198365 C15.9679189,19.4677734 16.4145196,19.0205384 16.9657996,19.0205384 C17.5170794,19.0205384 17.9636801,19.4677734 17.9636801,20.0198365 L17.9636801,21.0191345 C17.9636801,21.5711975 17.5170794,22.0184326 16.9657996,22.0184326 Z" id="Shape" fill="#000000"></path>
                    <path d="M26.9459774,22.0184326 C26.3942403,22.0184326 25.9476396,21.5711975 25.9476396,21.0191345 L25.9476396,20.0198365 C25.9476396,19.4677734 26.3942403,19.0205384 26.9459774,19.0205384 C27.4972573,19.0205384 27.9438581,19.4677734 27.9438581,20.0198365 L27.9438581,21.0191345 C27.9438581,21.5711975 27.4972573,22.0184326 26.9459774,22.0184326 Z" id="Shape" fill="#000000"></path>
                    <path d="M22.9526263,25.0213623 C22.8031499,25.0213623 22.6509309,24.9874877 22.507397,24.9156189 L20.5116356,23.9163209 C20.0188663,23.6695862 19.8191074,23.0699157 20.0645779,22.5764466 L21.0624584,20.5732727 C21.3088431,20.078888 21.90812,19.8788452 22.4013465,20.1246643 C22.8945728,20.3709411 23.095246,20.9715271 22.8488613,21.4649964 L22.295753,22.5750732 L23.4001413,23.127594 C23.8933677,23.3747864 24.0931267,23.9749146 23.846742,24.4688415 C23.6712101,24.8190307 23.3192321,25.0213623 22.9526263,25.0213623 Z" id="Shape" fill="#000000"></path>
                    <path d="M11.9759392,25.0140381 L9.48100895,25.0140381 C7.55518617,25.0140381 5.98774105,23.4443665 5.98774105,21.515808 C5.98774105,19.5872497 7.55518617,18.0180359 9.48100895,18.0180359 L11.9759392,18.0180359 C12.5272191,18.0180359 12.9738199,18.4652709 12.9738199,19.017334 L12.9738199,24.0142822 C12.9738199,24.5663452 12.5272191,25.0140381 11.9759392,25.0140381 Z M9.48100895,20.0166321 C8.65546047,20.0166321 7.98395938,20.6890869 7.98395938,21.515808 C7.98395938,22.3425293 8.65546047,23.0149841 9.48100895,23.0149841 L10.9780585,23.0149841 L10.9780585,20.0166321 L9.48100895,20.0166321 Z" id="Shape" fill="#000000"></path>
                    <path d="M34.4307679,25.0213623 L31.9358378,25.0213623 C31.3841007,25.0213623 30.9379571,24.5736694 30.9379571,24.0216064 L30.9379571,19.0246582 C30.9379571,18.4725952 31.3841007,18.0253601 31.9358378,18.0253601 L34.4307679,18.0253601 C36.3565908,18.0253601 37.9235788,19.5945739 37.9235788,21.5231323 C37.9235788,23.4516907 36.3565908,25.0213623 34.4307679,25.0213623 Z M32.9337184,23.0223083 L34.4307679,23.0223083 C35.2563165,23.0223083 35.9278175,22.3498535 35.9278175,21.5231323 C35.9278175,20.6964111 35.2563165,20.0239563 34.4307679,20.0239563 L32.9337184,20.0239563 L32.9337184,23.0223083 Z" id="Shape" fill="#000000"></path>
                    <path d="M25.9476396,39.0124512 C25.3963598,39.0124512 24.9497589,38.5652161 24.9497589,38.013153 L24.9497589,32.5584411 C24.9497589,32.0059205 25.3963598,31.5586853 25.9476396,31.5586853 C26.4993767,31.5586853 26.9459774,32.0059205 26.9459774,32.5584411 L26.9459774,38.013153 C26.9459774,38.5652161 26.4993767,39.0124512 25.9476396,39.0124512 Z" id="Shape" fill="#000000"></path>
                    <path d="M22.9507979,51.0054016 L20.9577793,51.0054016 C20.5546044,51.0054016 20.1916556,50.7623291 20.0366938,50.390625 L15.0468334,38.3976745 C14.9183843,38.0891419 14.9522108,37.7366638 15.1373421,37.4588013 C15.3229305,37.180481 15.6342253,37.0133972 15.9679189,37.0133972 L17.3543467,37.0133972 C17.523022,36.8829346 17.7342088,36.8055725 17.9636801,36.8055725 C18.5149601,36.8055725 18.9620179,37.2528076 18.9620179,37.8053284 L18.9620179,38.013153 C18.9620179,38.5652161 18.5149601,39.0124512 17.9636801,39.0124512 L17.4649684,39.0124512 L21.6228807,49.0063477 L22.2856964,49.0063477 L26.4468085,39.0124512 L25.9476396,39.0124512 C25.3963598,39.0124512 24.9497589,38.5652161 24.9497589,38.013153 C24.9497589,37.4606323 25.3963598,37.0133972 25.9476396,37.0133972 L27.9438581,37.0133972 C28.2770944,37.0133972 28.5888465,37.180481 28.7739778,37.4588013 C28.9595661,37.7366638 28.9933926,38.0891419 28.8649434,38.3976745 L23.8718833,50.390625 C23.7169215,50.7632447 23.3535156,51.0054016 22.9507979,51.0054016 Z" id="Shape" fill="#000000"></path>
                    <path d="M17.9636801,38.8046264 C17.4128574,38.8046264 16.9657996,38.3573913 16.9657996,37.8053284 L16.9657996,32.4334717 C16.9657996,31.8809509 17.4128574,31.4337158 17.9636801,31.4337158 C18.5149601,31.4337158 18.9620179,31.8809509 18.9620179,32.4334717 L18.9620179,37.8053284 C18.9620179,38.3573913 18.5149601,38.8046264 17.9636801,38.8046264 Z" id="Shape" fill="#000000"></path>
                    <path d="M20.9609791,51.0054016 C20.7580203,51.0054016 20.5550615,50.9436035 20.3809009,50.8190918 L13.3920794,45.8216858 C13.0885555,45.6051635 12.9308511,45.2371216 12.9843334,44.8672486 L13.9822141,37.8712464 C14.0521526,37.3796081 14.473155,37.0133972 14.9700382,37.0133972 L15.9679189,37.0133972 C16.3706366,37.0133972 16.7340426,37.2555541 16.8890044,37.6286316 L21.8816074,49.621582 C22.0534824,50.0331116 21.9314328,50.5096436 21.5826546,50.7875061 C21.4011801,50.9321595 21.1808511,51.0054016 20.9609791,51.0054016 Z M15.0459192,44.5481872 L18.6932348,47.1569824 L15.6995927,39.9659729 L15.0459192,44.5481872 Z" id="Shape" fill="#000000"></path>
                    <path d="M22.9539977,51.0054016 C22.7341257,51.0054016 22.5142536,50.9330749 22.3327793,50.7884216 C21.9835439,50.5105591 21.8605801,50.0340271 22.0329122,49.621582 L27.0227726,37.6286316 C27.1777344,37.2564697 27.5411402,37.0133972 27.9438581,37.0133972 L28.9417386,37.0133972 C29.4395363,37.0133972 29.8619099,37.3814392 29.9300199,37.8762818 L30.8968169,44.8722839 C30.9475566,45.2389526 30.7916805,45.604248 30.4904422,45.8207702 L23.5354472,50.8177185 C23.3612865,50.942688 23.1574136,51.0054016 22.9539977,51.0054016 Z M28.2057846,39.9806214 L25.225856,47.1432495 L28.8375167,44.5481872 L28.2057846,39.9806214 Z" id="Shape" fill="#000000"></path>
                    <path d="M9.97972074,60 C9.72465087,60 9.46912403,59.9024964 9.27439326,59.7070312 L8.98503989,59.4172669 C7.69597739,58.1272888 6.98607882,56.4102173 6.98607882,54.584198 L6.98607882,53.7313842 C6.98607882,53.0987549 7.13509804,52.4684143 7.41668049,51.9062805 L8.89361702,48.9482116 C8.95121349,48.8328552 8.98184006,48.7028503 8.98184006,48.5733033 L8.98184006,47.0077514 C8.98184006,46.4552307 9.42889797,46.0084534 9.97972074,46.0084534 C10.5310007,46.0084534 10.9780585,46.4552307 10.9780585,47.0077514 L10.9780585,48.5733033 C10.9780585,49.0104675 10.8747507,49.4485474 10.6795629,49.8408509 L9.20125496,52.802124 C9.05726402,53.0882263 8.98184006,53.4091186 8.98184006,53.7313842 L8.98184006,54.584198 C8.98184006,55.8764648 9.48420878,57.0904541 10.396152,58.0041504 L10.6855053,58.2939148 C11.0754238,58.6843873 11.0754238,59.3170166 10.6855053,59.707489 C10.4907747,59.9024964 10.2352477,60 9.97972074,60 Z" id="Shape" fill="#000000"></path>
                    <path d="M33.9315991,60 C33.6765293,60 33.4210023,59.9024964 33.2262716,59.7070313 C32.836353,59.3170166 32.836353,58.6843873 33.2262716,58.2939148 L33.515625,58.0041504 C34.4280253,57.0904541 34.9294797,55.8764648 34.9294797,54.584198 L34.9294797,53.7313842 C34.9294797,53.4100342 34.8535988,53.0891419 34.7114362,52.8030396 L33.2331284,49.8417663 C33.0370262,49.4494629 32.9337184,49.0113831 32.9337184,48.5733033 L32.9337184,47.0077514 C32.9337184,46.4552307 33.3798621,46.0084534 33.9315991,46.0084534 C34.4833361,46.0084534 34.9294797,46.4552307 34.9294797,47.0077514 L34.9294797,48.5733033 C34.9294797,48.7019348 34.9596493,48.8319397 35.0181599,48.9477539 L36.4960106,51.9081116 C36.7766789,52.4702454 36.9256981,53.1005859 36.9256981,53.7313842 L36.9256981,54.584198 C36.9256981,56.4102173 36.2162566,58.1272888 34.9267371,59.4172669 L34.6373837,59.7070312 C34.4421958,59.9024964 34.187126,60 33.9315991,60 Z" id="Shape" fill="#000000"></path>
                    <path d="M18.9620179,60 C18.410738,60 17.9636801,59.5532227 17.9636801,59.0007019 L17.9636801,53.0039978 C17.9636801,52.689972 18.1113281,52.3933411 18.3627411,52.2047425 L22.3547207,49.2063904 C22.7976645,48.875885 23.4225399,48.9646911 23.7521193,49.4068909 C24.0835273,49.8477173 23.9939328,50.4743958 23.5523604,50.8053588 L19.9598986,53.5038757 L19.9598986,59.0007019 C19.9598986,59.5532227 19.5128408,60 18.9620179,60 Z" id="Shape" fill="#000000"></path>
                    <path d="M34.9294797,20.0239563 L31.9358378,20.0239563 C31.8092171,20.0239563 31.6835106,19.9996948 31.5655752,19.9530029 L25.177859,17.3963929 C22.6641871,16.3883972 20.4192986,14.9066162 18.5049035,12.9908753 L16.3317819,10.8105469 L12.9025099,19.3959046 C12.7507481,19.7753906 12.3836852,20.0239563 11.9759392,20.0239563 L8.98184006,20.0239563 C8.4305602,20.0239563 7.98395938,19.5767212 7.98395938,19.0246582 L7.98395938,12.028656 C7.98395938,8.8719177 8.29845406,7.58468625 9.51117855,5.8026123 C10.6749917,3.90518191 12.6922374,2.69851688 14.913356,2.57171625 L15.4056683,2.57125852 C16.3258395,1.25930789 19.2271443,-1.53350836 26.2351645,1.07528684 C27.3902926,1.35681152 29.4134807,2.61062625 31.2282247,3.76968387 L31.6277427,4.02328488 C33.6120762,5.2793884 35.9278175,7.84881586 35.9278175,10.95932 L35.9278175,19.0246582 C35.9278175,19.5767212 35.4812168,20.0239563 34.9294797,20.0239563 Z M32.1278258,18.0253601 L33.9315991,18.0253601 L33.9315991,10.95932 C33.9315991,8.8092041 32.2398188,6.77536008 30.5626662,5.71380609 L30.1553773,5.45471191 C29.1885805,4.83718875 26.6214263,3.19747922 25.7423953,3.0125427 C25.693484,3.00247195 25.6445728,2.98828125 25.5970329,2.97088617 C18.5812417,0.334167422 16.8976896,3.93630984 16.8812333,3.9724732 C16.7212434,4.33502203 16.36378,4.56893918 15.9679189,4.56893918 L14.9700382,4.56893918 C13.4519614,4.6568298 12.0221077,5.51605219 11.2015874,6.86508176 C11.1924451,6.88018805 11.1833028,6.89483648 11.1732464,6.90948492 C10.2489611,8.2635498 9.98017783,9.09942633 9.98017783,12.028656 L9.98017783,18.0253601 L11.299867,18.0253601 L15.040891,8.65905762 C15.1656831,8.34732059 15.4385805,8.11889648 15.7677029,8.0516052 C16.0981964,7.98660281 16.4373754,8.08685297 16.6741605,8.32443234 L19.9164727,11.5773011 C21.6379654,13.3003235 23.6574966,14.6342468 25.9183843,15.5406189 L32.1278258,18.0253601 Z M10.3490691,6.34506223 L10.3591257,6.34506223 L10.3490691,6.34506223 Z" id="Shape" fill="#000000"></path>
                    <polygon id="Shape" fill="#000000" points="22.9539977 54.0037536 24.9497589 54.0037536 24.9497589 56.0023499 22.9539977 56.0023499"></polygon>
                    <polygon id="Shape" fill="#000000" points="8.98184006 60 0 60 0 51.0054016 8.42004654 51.0054016 8.42004654 53.0039978 1.99621845 53.0039978 1.99621845 58.0014038 8.98184006 58.0014038"></polygon>
                    <polygon id="Shape" fill="#000000" points="43.911777 60 34.9294797 60 34.9294797 58.0014038 41.9155585 58.0014038 41.9155585 53.0039978 35.741772 53.0039978 35.741772 51.0054016 43.911777 51.0054016"></polygon>
                    <path d="M17.9636801,39.0124512 L8.98184006,39.0124512 C8.43101729,39.0124512 7.98395938,38.5652161 7.98395938,38.013153 L7.98395938,24.6885681 C7.98395938,24.1365052 8.43101729,23.6888122 8.98184006,23.6888122 C9.53312004,23.6888122 9.97972074,24.1365052 9.97972074,24.6885681 L9.97972074,37.0133972 L17.9636801,37.0133972 C18.5149601,37.0133972 18.9620179,37.4606323 18.9620179,38.013153 C18.9620179,38.5652161 18.5149601,39.0124512 17.9636801,39.0124512 Z" id="Shape" fill="#000000"></path>
                    <path d="M34.9294797,39.0124512 L26.7791307,39.0124512 C26.2273936,39.0124512 25.78125,38.5652161 25.78125,38.013153 C25.78125,37.4606323 26.2273936,37.0138549 26.7791307,37.0138549 L33.9315991,37.0138549 L33.9315991,24.0216064 C33.9315991,23.4700012 34.3781998,23.0223083 34.9294797,23.0223083 C35.4812168,23.0223083 35.9278175,23.4700012 35.9278175,24.0216064 L35.9278175,38.013153 C35.9278175,38.5652161 35.4812168,39.0124512 34.9294797,39.0124512 Z" id="Shape" fill="#000000"></path>
                    <path d="M21.9556599,28.4884643 C21.1168551,28.4884643 20.2780502,28.2971191 19.5132979,27.913971 C19.0205285,27.6667786 18.8207696,27.0661927 19.0671543,26.5731811 C19.3130817,26.0792542 19.9123587,25.880127 20.4060422,26.125946 C21.3769531,26.6130066 22.5348237,26.6130066 23.5052776,26.125946 C23.998504,25.8796692 24.5977809,26.0792542 24.8446227,26.5731811 C25.0910073,27.0661927 24.8912483,27.6667786 24.398022,27.913971 C23.6341839,28.2971191 22.7949219,28.4884643 21.9556599,28.4884643 Z" id="Shape" fill="#000000"></path>
                </g>
            </g>
        </g>
    </g>
</svg>